<svg width="20" height="20" viewBox="0 0 20 20" fill="none" xmlns="http://www.w3.org/2000/svg">
<g clip-path="url(#clip0_220_691)">
<path d="M10 19.375C8.14581 19.375 6.33325 18.8252 4.79154 17.795C3.24982 16.7649 2.04821 15.3007 1.33863 13.5877C0.629062 11.8746 0.443406 9.98961 0.805142 8.17103C1.16688 6.35246 2.05976 4.68199 3.37088 3.37088C4.682 2.05976 6.35246 1.16688 8.17104 0.805139C9.98961 0.443402 11.8746 0.629058 13.5877 1.33863C15.3007 2.0482 16.7649 3.24982 17.795 4.79153C18.8252 6.33324 19.375 8.14581 19.375 10C19.3722 12.4855 18.3836 14.8685 16.626 16.626C14.8685 18.3836 12.4856 19.3722 10 19.375ZM10 1.25C8.26942 1.25 6.5777 1.76318 5.13877 2.72464C3.69984 3.68611 2.57833 5.05267 1.91606 6.65152C1.25379 8.25038 1.08051 10.0097 1.41813 11.707C1.75575 13.4044 2.58911 14.9635 3.81282 16.1872C5.03653 17.4109 6.59563 18.2443 8.29297 18.5819C9.9903 18.9195 11.7496 18.7462 13.3485 18.084C14.9473 17.4217 16.3139 16.3002 17.2754 14.8612C18.2368 13.4223 18.75 11.7306 18.75 10C18.7474 7.68017 17.8246 5.45611 16.1843 3.81574C14.5439 2.17537 12.3198 1.25265 10 1.25Z" fill="black"/>
<path d="M9.37497 2.52469C9.29209 2.52792 9.21132 2.4981 9.15043 2.44178C9.08954 2.38546 9.05352 2.30726 9.05029 2.22438C9.04705 2.14149 9.07688 2.06073 9.1332 1.99983C9.18952 1.93894 9.26772 1.90292 9.3506 1.89969C9.5656 1.88375 9.78435 1.875 9.99997 1.875C10.0829 1.875 10.1623 1.90792 10.2209 1.96653C10.2795 2.02513 10.3125 2.10462 10.3125 2.1875C10.3125 2.27038 10.2795 2.34987 10.2209 2.40847C10.1623 2.46708 10.0829 2.5 9.99997 2.5C9.8006 2.5 9.59841 2.50781 9.39966 2.52375L9.37497 2.52469Z" fill="black"/>
<path d="M2.18751 10.3125C2.10463 10.3125 2.02514 10.2796 1.96654 10.221C1.90793 10.1624 1.87501 10.0829 1.87501 10C1.87217 8.18354 2.47924 6.41871 3.5989 4.98836C4.71857 3.55801 6.28601 2.54496 8.05002 2.11156C8.13053 2.09167 8.21566 2.10458 8.28666 2.14745C8.35766 2.19032 8.40872 2.25964 8.42861 2.34016C8.4485 2.42067 8.43559 2.5058 8.39272 2.5768C8.34985 2.6478 8.28053 2.69886 8.20002 2.71875C6.57183 3.11891 5.12508 4.05401 4.09157 5.37422C3.05806 6.69444 2.49761 8.32336 2.50001 10C2.50001 10.0829 2.46709 10.1624 2.40848 10.221C2.34988 10.2796 2.27039 10.3125 2.18751 10.3125Z" fill="black"/>
<path d="M10 7.5C9.69097 7.5 9.38888 7.40836 9.13192 7.23667C8.87497 7.06498 8.6747 6.82095 8.55644 6.53544C8.43818 6.24993 8.40723 5.93577 8.46752 5.63267C8.52781 5.32958 8.67663 5.05117 8.89515 4.83265C9.11367 4.61413 9.39208 4.46531 9.69517 4.40502C9.99827 4.34473 10.3124 4.37568 10.5979 4.49394C10.8835 4.6122 11.1275 4.81247 11.2992 5.06942C11.4709 5.32637 11.5625 5.62847 11.5625 5.9375C11.562 6.35175 11.3972 6.74889 11.1043 7.04181C10.8114 7.33473 10.4143 7.4995 10 7.5ZM10 5C9.81458 5 9.63333 5.05498 9.47916 5.158C9.32498 5.26101 9.20482 5.40743 9.13387 5.57873C9.06291 5.75004 9.04434 5.93854 9.08052 6.1204C9.11669 6.30226 9.20598 6.4693 9.33709 6.60041C9.4682 6.73153 9.63525 6.82081 9.81711 6.85699C9.99896 6.89316 10.1875 6.87459 10.3588 6.80364C10.5301 6.73268 10.6765 6.61252 10.7795 6.45835C10.8825 6.30418 10.9375 6.12292 10.9375 5.9375C10.9375 5.68886 10.8387 5.4504 10.6629 5.27459C10.4871 5.09877 10.2486 5 10 5Z" fill="black"/>
<path d="M9.99625 16.25C9.9725 16.25 9.94875 16.25 9.925 16.2484C9.524 16.2292 9.14581 16.0563 8.86886 15.7657C8.5919 15.475 8.43744 15.089 8.4375 14.6875V10.625C8.10598 10.625 7.78804 10.4933 7.55362 10.2589C7.3192 10.0245 7.1875 9.70652 7.1875 9.375C7.1875 9.04348 7.3192 8.72554 7.55362 8.49112C7.78804 8.2567 8.10598 8.125 8.4375 8.125H10C10.4142 8.1255 10.8114 8.29028 11.1043 8.58319C11.3972 8.87611 11.562 9.27325 11.5625 9.6875V14.6169C11.5617 14.842 11.5155 15.0646 11.4267 15.2715C11.3378 15.4783 11.2081 15.6651 11.0453 15.8206C10.7645 16.0942 10.3884 16.2482 9.99625 16.25ZM8.4375 8.75C8.27174 8.75 8.11277 8.81585 7.99556 8.93306C7.87835 9.05027 7.8125 9.20924 7.8125 9.375C7.8125 9.54076 7.87835 9.69973 7.99556 9.81694C8.11277 9.93415 8.27174 10 8.4375 10H8.75C8.83288 10 8.91237 10.0329 8.97097 10.0915C9.02958 10.1501 9.0625 10.2296 9.0625 10.3125V14.6875C9.06184 14.9287 9.15428 15.1608 9.32056 15.3354C9.48683 15.5101 9.71411 15.6138 9.955 15.625C10.0765 15.63 10.1978 15.6099 10.3112 15.566C10.4246 15.522 10.5277 15.455 10.6141 15.3694C10.7159 15.2722 10.7971 15.1555 10.8527 15.0262C10.9082 14.8969 10.9371 14.7576 10.9375 14.6169V9.6875C10.9375 9.43886 10.8387 9.2004 10.6629 9.02459C10.4871 8.84877 10.2486 8.75 10 8.75H8.4375Z" fill="black"/>
</g>
<defs>
<clipPath id="clip0_220_691">
<rect width="20" height="20" fill="white"/>
</clipPath>
</defs>
</svg>
