<svg width="16" height="22" viewBox="0 0 16 22" fill="none" xmlns="http://www.w3.org/2000/svg">
<path d="M13.4737 18.1617H2.52632L0 21.2248V3.86708C0 2.18236 1.13684 0.803955 2.52632 0.803955H13.4737C14.8632 0.803955 16 2.18236 16 3.86708V15.0986C16 16.7833 14.8632 18.1617 13.4737 18.1617Z" fill="#B99503"/>
<path d="M7.15784 7.95117H8.84205V13.5669H7.15784V7.95117Z" fill="white"/>
<path d="M7.99994 6.41953C8.46502 6.41953 8.84205 5.96239 8.84205 5.39848C8.84205 4.83458 8.46502 4.37744 7.99994 4.37744C7.53486 4.37744 7.15784 4.83458 7.15784 5.39848C7.15784 5.96239 7.53486 6.41953 7.99994 6.41953Z" fill="white"/>
</svg>
