<svg width="15" height="14" viewBox="0 0 15 14" fill="none" xmlns="http://www.w3.org/2000/svg">
<path d="M6.68402 2.21018C4.90516 3.98905 4.46128 4.44869 4.42057 4.55491C4.31741 4.82369 4.42685 5.11144 4.68628 5.2645C4.80506 5.33322 5.07398 5.34271 5.18954 5.28333C5.23332 5.2645 6.11495 4.39864 7.15285 3.3638L9.03488 1.48483L10.92 3.3638C11.9548 4.39864 12.8364 5.2645 12.8802 5.28333C12.9866 5.33965 13.2554 5.33338 13.3711 5.27399C13.6556 5.12705 13.7681 4.76124 13.6149 4.47364C13.593 4.42986 12.5833 3.40451 11.3733 2.19457L9.17569 -7.62939e-06H9.03503H8.89437L6.68402 2.21018Z" fill="#282828"/>
<path d="M7.30621 3.68277L5.59607 5.39276V5.55531V5.71786L5.77745 5.73669C6.53081 5.82424 7.38443 6.11811 7.97524 6.4902C8.08468 6.55893 8.12845 6.5652 8.48478 6.5652C8.93814 6.5652 8.97243 6.58082 8.97243 6.80275C8.97243 6.91847 8.98176 6.94035 9.03487 6.94035C9.08799 6.94035 9.09748 6.91847 9.09748 6.81224C9.09748 6.5652 9.09748 6.5652 9.67589 6.5652C10.051 6.5652 10.1949 6.57454 10.2136 6.6027C10.2261 6.62459 10.2448 6.7403 10.2542 6.85908L10.2698 7.07474L10.6761 7.14974C11.3514 7.27158 12.0799 7.54356 12.3456 7.77499L12.4738 7.88443V6.6526V5.42399L10.745 3.69517L9.01926 1.96957L7.30621 3.68277ZM8.90998 5.3147C8.9663 5.37103 8.97258 5.41786 8.97258 5.83373C8.97258 6.08689 8.95697 6.3151 8.94135 6.34954C8.91013 6.40587 8.86942 6.40893 8.40059 6.40893C8.04411 6.40893 7.8785 6.39638 7.85355 6.37143C7.82861 6.34648 7.81606 6.18393 7.81606 5.84307C7.81606 5.21781 7.78162 5.25225 8.40075 5.25225C8.80681 5.2521 8.85365 5.25837 8.90998 5.3147ZM10.1854 5.30215C10.2511 5.34593 10.2542 5.36781 10.2542 5.81796C10.2542 6.08368 10.2385 6.3151 10.2229 6.34939C10.1917 6.40571 10.151 6.40878 9.67589 6.40878C9.20079 6.40878 9.16008 6.40571 9.12885 6.34939C9.11324 6.31495 9.09763 6.08368 9.09763 5.81796C9.09763 5.22394 9.0664 5.2521 9.67604 5.2521C10.0229 5.2521 10.1291 5.26144 10.1854 5.30215Z" fill="#282828"/>
<path d="M0.543976 5.87109C0.493925 5.91792 0.456426 6.03685 0.393977 6.35874C0.16255 7.55934 0.00306121 9.40387 0 10.87C0 11.3202 0.0249488 11.4515 0.121989 11.4921C0.150152 11.5046 0.500201 11.5265 0.897239 11.5452C1.56627 11.5764 1.62871 11.5733 1.68198 11.5265C1.73509 11.4765 1.74443 11.4015 1.76019 10.6355C1.78514 9.57576 1.92596 8.14082 2.16045 6.54011C2.23238 6.03057 2.23238 6.01496 2.16045 5.94302C2.11361 5.89619 2.0354 5.88364 1.66958 5.86481C1.42882 5.85547 1.09438 5.83665 0.922341 5.82731C0.637802 5.8117 0.603364 5.81491 0.543976 5.87109Z" fill="#282828"/>
<path d="M4.51435 6.23689C4.14226 6.29322 3.62645 6.42133 3.25451 6.54944C2.80421 6.70587 2.71987 6.74643 2.68865 6.82464C2.66048 6.88709 2.3761 10.2292 2.3761 10.4793C2.3761 10.5449 2.39799 10.6074 2.43242 10.6388C2.46365 10.6669 2.63875 10.7138 2.84508 10.7482C3.34834 10.8357 3.414 10.867 5.22103 11.8955C6.74658 12.7646 7.35622 13.0866 7.77209 13.2429C8.14096 13.3805 8.63504 13.3398 10.2387 13.0335C10.6857 12.9492 11.2265 12.8522 11.4423 12.8179C12.4052 12.6616 12.2958 12.721 13.6338 11.6768C14.2716 11.1766 14.7311 10.7358 14.8375 10.5169C14.9376 10.3106 14.95 10.0698 14.8687 9.91661C14.8156 9.81651 14.8156 9.81345 14.8937 9.71963C15.0625 9.52264 15.0281 9.27575 14.8061 9.07249C14.3809 8.67851 13.7119 8.87871 12.9273 9.62901C12.4146 10.1199 12.1207 10.2543 11.2767 10.3856C10.9297 10.4387 10.6952 10.4543 10.2076 10.4543C9.43233 10.4543 9.30728 10.4231 8.53509 10.0541C8.23494 9.90712 7.92545 9.78207 7.84724 9.76952C7.76902 9.75697 7.54403 9.69452 7.34704 9.62886L6.9875 9.51009L7.34704 9.50687C7.54403 9.50381 7.84724 9.48192 8.01912 9.45682C8.64131 9.36621 9.11014 9.41305 10.8797 9.73815C11.5049 9.85386 11.6456 9.86014 11.8176 9.76937C11.9552 9.69743 12.1521 9.45055 12.224 9.25983C12.4834 8.56586 12.2927 8.14372 11.5925 7.86545C11.1298 7.68408 10.2481 7.50285 9.50412 7.44025C8.93198 7.39342 8.55683 7.32775 8.40055 7.24648C8.32861 7.21204 8.088 7.07459 7.86591 6.94633C7.16245 6.53674 6.63102 6.33041 6.05888 6.23659C5.70225 6.18057 4.91139 6.18057 4.51435 6.23689Z" fill="#282828"/>
</svg>
