<svg width="16" height="16" viewBox="0 0 16 16" fill="none" xmlns="http://www.w3.org/2000/svg">
    <path
        d="M15.3551 12.2972C15.1509 12.2082 11.5282 11.1005 10.56 10.5292C10.489 10.3462 10.1623 9.84623 10.1046 9.58266C10.1233 9.38676 10.0953 8.72123 10.2117 8.48435C10.8453 7.73025 11.6133 6.61641 11.7157 4.44917C11.7961 2.74837 10.631 0.285156 8.015 0.285156C8.01 0.285156 8.00509 0.285424 8.00009 0.285513C7.99509 0.285424 7.99018 0.285156 7.98518 0.285156C5.36928 0.285156 4.2041 2.74837 4.28446 4.44917C4.38687 6.6165 5.155 7.73025 5.78848 8.48435C5.90491 8.72123 5.87687 9.38676 5.89562 9.58266C5.83794 9.84623 5.51125 10.3462 5.44018 10.5292C4.47187 11.1005 0.849286 12.2082 0.645089 12.2972C0.440893 12.3862 0.0948214 12.6406 0 12.8951V15.7136H16V12.8951C15.9052 12.6406 15.5592 12.3861 15.3549 12.2972H15.3551Z"
        fill="#B99503" />
</svg>
