<svg width="23" height="23" viewBox="0 0 23 23" fill="none" xmlns="http://www.w3.org/2000/svg">
<g clip-path="url(#clip0_104_552)">
<path d="M10.8371 1.51179V2.83774H8.84831H6.8595V6.83744V10.8371H5.53355H4.2076V9.84262V8.8481H3.54474H2.88188V9.84262V10.8371H1.55593H0.22998V16.8257V22.8142H11.5H22.77V15.4997V8.18524H22.1071H21.4443V7.16864V6.15204H20.7814H20.1185V7.16864V8.18524H18.1297H16.1409V5.51149V2.83774H15.4781H14.8152V1.51179V0.185841H12.8264H10.8376V1.51179H10.8371ZM13.4888 2.17465V2.83751H12.8259H12.1631V2.17465V1.51179H12.8259H13.4888V2.17465ZM14.8147 12.826V21.4884H11.5H8.18522V12.826V4.16346H11.5H14.8147V12.826ZM21.444 15.4997V21.4882H18.7924H16.1405V15.4997V9.51119H18.7921H21.4438V15.4997H21.444ZM6.8595 16.8257V21.4882H4.2076H1.55593V16.8257V12.1629H4.2076H6.85927V16.8257H6.8595Z" fill="#282828"/>
<path d="M10.174 6.15227V6.81513H11.5H12.8259V6.15227V5.48941H11.5H10.174V6.15227Z" fill="#282828"/>
<path d="M10.174 8.84833V9.51119H11.5H12.8259V8.84833V8.18547H11.5H10.174V8.84833Z" fill="#282828"/>
<path d="M10.174 11.5V12.1629H11.5H12.8259V11.5V10.8371H11.5H10.174V11.5Z" fill="#282828"/>
<path d="M10.174 14.1517V14.8145H11.5H12.8259V14.1517V13.4888H11.5H10.174V14.1517Z" fill="#282828"/>
<path d="M10.174 16.8477V17.5106H11.5H12.8259V16.8477V16.1849H11.5H10.174V16.8477Z" fill="#282828"/>
<path d="M10.174 19.4994V20.1623H11.5H12.8259V19.4994V18.8365H11.5H10.174V19.4994Z" fill="#282828"/>
<path d="M18.1295 11.5V12.1629H18.7924H19.4552V11.5V10.8371H18.7924H18.1295V11.5Z" fill="#282828"/>
<path d="M18.1295 14.1517V14.8145H18.7924H19.4552V14.1517V13.4888H18.7924H18.1295V14.1517Z" fill="#282828"/>
<path d="M18.1295 16.8477V17.5106H18.7924H19.4552V16.8477V16.1849H18.7924H18.1295V16.8477Z" fill="#282828"/>
<path d="M18.1295 19.4994V20.1623H18.7924H19.4552V19.4994V18.8365H18.7924H18.1295V19.4994Z" fill="#282828"/>
<path d="M3.54474 14.1517V14.8145H4.2076H4.87046V14.1517V13.4888H4.2076H3.54474V14.1517Z" fill="#282828"/>
<path d="M3.54474 16.8477V17.5106H4.2076H4.87046V16.8477V16.1849H4.2076H3.54474V16.8477Z" fill="#282828"/>
<path d="M3.54474 19.4994V20.1623H4.2076H4.87046V19.4994V18.8365H4.2076H3.54474V19.4994Z" fill="#282828"/>
</g>
<defs>
<clipPath id="clip0_104_552">
<rect width="23" height="23" fill="white"/>
</clipPath>
</defs>
</svg>
