<svg width="11" height="10" viewBox="0 0 11 10" fill="none" xmlns="http://www.w3.org/2000/svg">
<path d="M8.74006 7.32697C8.67488 7.32697 8.61237 7.35192 8.56629 7.39635C8.5202 7.44077 8.49431 7.50102 8.49431 7.56384V7.91916H8.12568C8.06051 7.91916 7.998 7.94412 7.95191 7.98854C7.90582 8.03296 7.87993 8.09321 7.87993 8.15604C7.87993 8.21886 7.90582 8.27911 7.95191 8.32353C7.998 8.36796 8.06051 8.39291 8.12568 8.39291H8.74006C8.80523 8.39291 8.86774 8.36796 8.91383 8.32353C8.95992 8.27911 8.98581 8.21886 8.98581 8.15604V7.56384C8.98581 7.50102 8.95992 7.44077 8.91383 7.39635C8.86774 7.35192 8.80523 7.32697 8.74006 7.32697ZM7.06171 7.91916H5.99773C5.93255 7.91916 5.87005 7.94412 5.82396 7.98854C5.77787 8.03296 5.75198 8.09321 5.75198 8.15604C5.75198 8.21886 5.77787 8.27911 5.82396 8.32353C5.87005 8.36796 5.93255 8.39291 5.99773 8.39291H7.06171C7.12688 8.39291 7.18939 8.36796 7.23548 8.32353C7.28157 8.27911 7.30746 8.21886 7.30746 8.15604C7.30746 8.09321 7.28157 8.03296 7.23548 7.98854C7.18939 7.94412 7.12688 7.91916 7.06171 7.91916ZM4.93375 7.91916H3.86978C3.8046 7.91916 3.74209 7.94412 3.69601 7.98854C3.64992 8.03296 3.62403 8.09321 3.62403 8.15604C3.62403 8.21886 3.64992 8.27911 3.69601 8.32353C3.74209 8.36796 3.8046 8.39291 3.86978 8.39291H4.93375C4.99893 8.39291 5.06144 8.36796 5.10753 8.32353C5.15361 8.27911 5.1795 8.21886 5.1795 8.15604C5.1795 8.09321 5.15361 8.03296 5.10753 7.98854C5.06144 7.94412 4.99893 7.91916 4.93375 7.91916ZM2.19155 7.32697C2.12637 7.32697 2.06387 7.35192 2.01778 7.39635C1.97169 7.44077 1.9458 7.50102 1.9458 7.56384V8.15604C1.9458 8.21886 1.97169 8.27911 2.01778 8.32353C2.06387 8.36796 2.12637 8.39291 2.19155 8.39291H2.80593C2.8711 8.39291 2.93361 8.36796 2.9797 8.32353C3.02579 8.27911 3.05168 8.21886 3.05168 8.15604C3.05168 8.09321 3.02579 8.03296 2.9797 7.98854C2.93361 7.94412 2.8711 7.91916 2.80593 7.91916H2.4373V7.56384C2.4373 7.50102 2.41141 7.44077 2.36532 7.39635C2.31924 7.35192 2.25673 7.32697 2.19155 7.32697ZM2.19155 3.22485C2.12637 3.22485 2.06387 3.24981 2.01778 3.29423C1.97169 3.33865 1.9458 3.3989 1.9458 3.46173V4.48729C1.9458 4.55011 1.97169 4.61036 2.01778 4.65478C2.06387 4.69921 2.12637 4.72416 2.19155 4.72416C2.25673 4.72416 2.31924 4.69921 2.36532 4.65478C2.41141 4.61036 2.4373 4.55011 2.4373 4.48729V3.46173C2.4373 3.3989 2.41141 3.33865 2.36532 3.29423C2.31924 3.24981 2.25673 3.22485 2.19155 3.22485ZM2.19155 5.27597C2.12637 5.27597 2.06387 5.30092 2.01778 5.34535C1.97169 5.38977 1.9458 5.45002 1.9458 5.51285V6.5384C1.9458 6.60123 1.97169 6.66148 2.01778 6.7059C2.06387 6.75032 2.12637 6.77528 2.19155 6.77528C2.25673 6.77528 2.31924 6.75032 2.36532 6.7059C2.41141 6.66148 2.4373 6.60123 2.4373 6.5384V5.51285C2.4373 5.45002 2.41141 5.38977 2.36532 5.34535C2.31924 5.30092 2.25673 5.27597 2.19155 5.27597ZM2.80593 1.6071H2.19155C2.12637 1.6071 2.06387 1.63206 2.01778 1.67648C1.97169 1.7209 1.9458 1.78115 1.9458 1.84398V2.43617C1.9458 2.49899 1.97169 2.55924 2.01778 2.60367C2.06387 2.64809 2.12637 2.67305 2.19155 2.67305C2.25673 2.67305 2.31924 2.64809 2.36532 2.60367C2.41141 2.55924 2.4373 2.49899 2.4373 2.43617V2.08085H2.80593C2.8711 2.08085 2.93361 2.0559 2.9797 2.01147C3.02579 1.96705 3.05168 1.9068 3.05168 1.84398C3.05168 1.78115 3.02579 1.7209 2.9797 1.67648C2.93361 1.63206 2.8711 1.6071 2.80593 1.6071ZM7.06171 1.6071H5.99773C5.93255 1.6071 5.87005 1.63206 5.82396 1.67648C5.77787 1.7209 5.75198 1.78115 5.75198 1.84398C5.75198 1.9068 5.77787 1.96705 5.82396 2.01147C5.87005 2.0559 5.93255 2.08085 5.99773 2.08085H7.06171C7.12688 2.08085 7.18939 2.0559 7.23548 2.01147C7.28157 1.96705 7.30746 1.9068 7.30746 1.84398C7.30746 1.78115 7.28157 1.7209 7.23548 1.67648C7.18939 1.63206 7.12688 1.6071 7.06171 1.6071ZM4.93375 1.6071H3.86978C3.8046 1.6071 3.74209 1.63206 3.69601 1.67648C3.64992 1.7209 3.62403 1.78115 3.62403 1.84398C3.62403 1.9068 3.64992 1.96705 3.69601 2.01147C3.74209 2.0559 3.8046 2.08085 3.86978 2.08085H4.93375C4.99893 2.08085 5.06144 2.0559 5.10753 2.01147C5.15361 1.96705 5.1795 1.9068 5.1795 1.84398C5.1795 1.78115 5.15361 1.7209 5.10753 1.67648C5.06144 1.63206 4.99893 1.6071 4.93375 1.6071ZM8.74006 1.6071H8.12568C8.06051 1.6071 7.998 1.63206 7.95191 1.67648C7.90582 1.7209 7.87993 1.78115 7.87993 1.84398C7.87993 1.9068 7.90582 1.96705 7.95191 2.01147C7.998 2.0559 8.06051 2.08085 8.12568 2.08085H8.49431V2.43617C8.49431 2.49899 8.5202 2.55924 8.56629 2.60367C8.61237 2.64809 8.67488 2.67305 8.74006 2.67305C8.80523 2.67305 8.86774 2.64809 8.91383 2.60367C8.95992 2.55924 8.98581 2.49899 8.98581 2.43617V1.84398C8.98581 1.78115 8.95992 1.7209 8.91383 1.67648C8.86774 1.63206 8.80523 1.6071 8.74006 1.6071ZM8.74006 3.22485C8.67488 3.22485 8.61237 3.24981 8.56629 3.29423C8.5202 3.33865 8.49431 3.3989 8.49431 3.46173V4.48729C8.49431 4.55011 8.5202 4.61036 8.56629 4.65478C8.61237 4.69921 8.67488 4.72416 8.74006 4.72416C8.80523 4.72416 8.86774 4.69921 8.91383 4.65478C8.95992 4.61036 8.98581 4.55011 8.98581 4.48729V3.46173C8.98581 3.3989 8.95992 3.33865 8.91383 3.29423C8.86774 3.24981 8.80523 3.22485 8.74006 3.22485ZM8.74006 5.27597C8.67488 5.27597 8.61237 5.30092 8.56629 5.34535C8.5202 5.38977 8.49431 5.45002 8.49431 5.51285V6.5384C8.49431 6.60123 8.5202 6.66148 8.56629 6.7059C8.61237 6.75032 8.67488 6.77528 8.74006 6.77528C8.80523 6.77528 8.86774 6.75032 8.91383 6.7059C8.95992 6.66148 8.98581 6.60123 8.98581 6.5384V5.51285C8.98581 5.45002 8.95992 5.38977 8.91383 5.34535C8.86774 5.30092 8.80523 5.27597 8.74006 5.27597Z" fill="black"/>
<path d="M10.4073 -4.02179e-09H0.524254C0.459077 -4.02179e-09 0.396569 0.0249573 0.350482 0.0693804C0.304395 0.113803 0.278503 0.174053 0.278503 0.236877V9.76312C0.278503 9.82595 0.304395 9.8862 0.350482 9.93062C0.396569 9.97504 0.459077 10 0.524254 10H10.4073C10.4725 10 10.535 9.97504 10.5811 9.93062C10.6272 9.8862 10.6531 9.82595 10.6531 9.76312V0.236877C10.6531 0.174053 10.6272 0.113803 10.5811 0.0693804C10.535 0.0249573 10.4725 -4.02179e-09 10.4073 -4.02179e-09V-4.02179e-09ZM0.770004 0.473754H10.1616V9.52625H0.770004V0.473754V0.473754Z" fill="black"/>
</svg>
