<svg width="15" height="16" viewBox="0 0 15 16" fill="none" xmlns="http://www.w3.org/2000/svg">
    <path
        d="M12.0689 11.8549C11.976 11.8549 11.8868 11.8935 11.8211 11.9624C11.7553 12.0312 11.7184 12.1245 11.7184 12.2219V12.7724H11.1926C11.0997 12.7724 11.0105 12.8111 10.9448 12.8799C10.879 12.9487 10.8421 13.0421 10.8421 13.1394C10.8421 13.2368 10.879 13.3301 10.9448 13.3989C11.0105 13.4678 11.0997 13.5064 11.1926 13.5064H12.0689C12.1619 13.5064 12.251 13.4678 12.3168 13.3989C12.3825 13.3301 12.4194 13.2368 12.4194 13.1394V12.2219C12.4194 12.1245 12.3825 12.0312 12.3168 11.9624C12.251 11.8935 12.1619 11.8549 12.0689 11.8549ZM9.67505 12.7724H8.15748C8.06451 12.7724 7.97536 12.8111 7.90962 12.8799C7.84389 12.9487 7.80696 13.0421 7.80696 13.1394C7.80696 13.2368 7.84389 13.3301 7.90962 13.3989C7.97536 13.4678 8.06451 13.5064 8.15748 13.5064H9.67505C9.76801 13.5064 9.85717 13.4678 9.92291 13.3989C9.98864 13.3301 10.0256 13.2368 10.0256 13.1394C10.0256 13.0421 9.98864 12.9487 9.92291 12.8799C9.85717 12.8111 9.76801 12.7724 9.67505 12.7724ZM6.6399 12.7724H5.12233C5.02937 12.7724 4.94021 12.8111 4.87447 12.8799C4.80874 12.9487 4.77181 13.0421 4.77181 13.1394C4.77181 13.2368 4.80874 13.3301 4.87447 13.3989C4.94021 13.4678 5.02937 13.5064 5.12233 13.5064H6.6399C6.73287 13.5064 6.82202 13.4678 6.88776 13.3989C6.95349 13.3301 6.99042 13.2368 6.99042 13.1394C6.99042 13.0421 6.95349 12.9487 6.88776 12.8799C6.82202 12.8111 6.73287 12.7724 6.6399 12.7724ZM2.72863 11.8549C2.63567 11.8549 2.54651 11.8935 2.48078 11.9624C2.41504 12.0312 2.37811 12.1245 2.37811 12.2219V13.1394C2.37811 13.2368 2.41504 13.3301 2.48078 13.3989C2.54651 13.4678 2.63567 13.5064 2.72863 13.5064H3.60493C3.69789 13.5064 3.78705 13.4678 3.85279 13.3989C3.91852 13.3301 3.95545 13.2368 3.95545 13.1394C3.95545 13.0421 3.91852 12.9487 3.85279 12.8799C3.78705 12.8111 3.69789 12.7724 3.60493 12.7724H3.07915V12.2219C3.07915 12.1245 3.04222 12.0312 2.97649 11.9624C2.91075 11.8935 2.8216 11.8549 2.72863 11.8549ZM2.72863 5.49905C2.63567 5.49905 2.54651 5.53772 2.48078 5.60655C2.41504 5.67538 2.37811 5.76873 2.37811 5.86607V7.45507C2.37811 7.55241 2.41504 7.64576 2.48078 7.71459C2.54651 7.78342 2.63567 7.82209 2.72863 7.82209C2.8216 7.82209 2.91075 7.78342 2.97649 7.71459C3.04222 7.64576 3.07915 7.55241 3.07915 7.45507V5.86607C3.07915 5.76873 3.04222 5.67538 2.97649 5.60655C2.91075 5.53772 2.8216 5.49905 2.72863 5.49905ZM2.72863 8.67705C2.63567 8.67705 2.54651 8.71572 2.48078 8.78455C2.41504 8.85338 2.37811 8.94673 2.37811 9.04407V10.6331C2.37811 10.7304 2.41504 10.8238 2.48078 10.8926C2.54651 10.9614 2.63567 11.0001 2.72863 11.0001C2.8216 11.0001 2.91075 10.9614 2.97649 10.8926C3.04222 10.8238 3.07915 10.7304 3.07915 10.6331V9.04407C3.07915 8.94673 3.04222 8.85338 2.97649 8.78455C2.91075 8.71572 2.8216 8.67705 2.72863 8.67705ZM3.60493 2.99251H2.72863C2.63567 2.99251 2.54651 3.03118 2.48078 3.10001C2.41504 3.16884 2.37811 3.26219 2.37811 3.35953V4.27707C2.37811 4.37441 2.41504 4.46776 2.48078 4.53659C2.54651 4.60542 2.63567 4.64409 2.72863 4.64409C2.8216 4.64409 2.91075 4.60542 2.97649 4.53659C3.04222 4.46776 3.07915 4.37441 3.07915 4.27707V3.72655H3.60493C3.69789 3.72655 3.78705 3.68788 3.85279 3.61905C3.91852 3.55022 3.95545 3.45687 3.95545 3.35953C3.95545 3.26219 3.91852 3.16884 3.85279 3.10001C3.78705 3.03118 3.69789 2.99251 3.60493 2.99251ZM9.67505 2.99251H8.15748C8.06451 2.99251 7.97536 3.03118 7.90962 3.10001C7.84389 3.16884 7.80696 3.26219 7.80696 3.35953C7.80696 3.45687 7.84389 3.55022 7.90962 3.61905C7.97536 3.68788 8.06451 3.72655 8.15748 3.72655H9.67505C9.76801 3.72655 9.85717 3.68788 9.92291 3.61905C9.98864 3.55022 10.0256 3.45687 10.0256 3.35953C10.0256 3.26219 9.98864 3.16884 9.92291 3.10001C9.85717 3.03118 9.76801 2.99251 9.67505 2.99251ZM6.6399 2.99251H5.12233C5.02937 2.99251 4.94021 3.03118 4.87447 3.10001C4.80874 3.16884 4.77181 3.26219 4.77181 3.35953C4.77181 3.45687 4.80874 3.55022 4.87447 3.61905C4.94021 3.68788 5.02937 3.72655 5.12233 3.72655H6.6399C6.73287 3.72655 6.82202 3.68788 6.88776 3.61905C6.95349 3.55022 6.99042 3.45687 6.99042 3.35953C6.99042 3.26219 6.95349 3.16884 6.88776 3.10001C6.82202 3.03118 6.73287 2.99251 6.6399 2.99251ZM12.0689 2.99251H11.1926C11.0997 2.99251 11.0105 3.03118 10.9448 3.10001C10.879 3.16884 10.8421 3.26219 10.8421 3.35953C10.8421 3.45687 10.879 3.55022 10.9448 3.61905C11.0105 3.68788 11.0997 3.72655 11.1926 3.72655H11.7184V4.27707C11.7184 4.37441 11.7553 4.46776 11.8211 4.53659C11.8868 4.60542 11.976 4.64409 12.0689 4.64409C12.1619 4.64409 12.251 4.60542 12.3168 4.53659C12.3825 4.46776 12.4194 4.37441 12.4194 4.27707V3.35953C12.4194 3.26219 12.3825 3.16884 12.3168 3.10001C12.251 3.03118 12.1619 2.99251 12.0689 2.99251ZM12.0689 5.49905C11.976 5.49905 11.8868 5.53772 11.8211 5.60655C11.7553 5.67538 11.7184 5.76873 11.7184 5.86607V7.45507C11.7184 7.55241 11.7553 7.64576 11.8211 7.71459C11.8868 7.78342 11.976 7.82209 12.0689 7.82209C12.1619 7.82209 12.251 7.78342 12.3168 7.71459C12.3825 7.64576 12.4194 7.55241 12.4194 7.45507V5.86607C12.4194 5.76873 12.3825 5.67538 12.3168 5.60655C12.251 5.53772 12.1619 5.49905 12.0689 5.49905ZM12.0689 8.67705C11.976 8.67705 11.8868 8.71572 11.8211 8.78455C11.7553 8.85338 11.7184 8.94673 11.7184 9.04407V10.6331C11.7184 10.7304 11.7553 10.8238 11.8211 10.8926C11.8868 10.9614 11.976 11.0001 12.0689 11.0001C12.1619 11.0001 12.251 10.9614 12.3168 10.8926C12.3825 10.8238 12.4194 10.7304 12.4194 10.6331V9.04407C12.4194 8.94673 12.3825 8.85338 12.3168 8.78455C12.251 8.71572 12.1619 8.67705 12.0689 8.67705Z"
        fill="#B99503" />
    <path
        d="M14.447 0.50248H0.35052C0.257556 0.50248 0.1684 0.541149 0.102665 0.609978C0.0369296 0.678807 0 0.772158 0 0.869497V15.6294C0 15.7268 0.0369296 15.8201 0.102665 15.889C0.1684 15.9578 0.257556 15.9965 0.35052 15.9965H14.447C14.54 15.9965 14.6291 15.9578 14.6949 15.889C14.7606 15.8201 14.7975 15.7268 14.7975 15.6294V0.869497C14.7975 0.772158 14.7606 0.678807 14.6949 0.609978C14.6291 0.541149 14.54 0.50248 14.447 0.50248V0.50248ZM0.701039 1.23651H14.0965V15.2624H0.701039V1.23651V1.23651Z"
        fill="#B99503" />
</svg>
