<svg width="46" height="46" viewBox="0 0 46 46" fill="none" xmlns="http://www.w3.org/2000/svg">
<g opacity="0.46">
<path d="M19.1667 19.1667V23H15.3333V19.1667H19.1667ZM30.6667 23V19.1667H26.8333V23H30.6667ZM40.25 26.8333V42.1667H5.75V26.8333H7.66667V19.1667C7.66667 10.695 14.5283 3.83334 23 3.83334C31.4717 3.83334 38.3333 10.695 38.3333 19.1667V26.8333H40.25ZM13.4167 30.6667H9.58333V38.3333H13.4167V30.6667ZM21.0833 30.6667H17.25V38.3333H21.0833V30.6667ZM21.0833 7.82001C15.64 8.74001 11.5 13.4742 11.5 19.1667V26.8333H21.0833V7.82001ZM24.9167 26.8333H34.5V19.1667C34.5 13.4742 30.36 8.74001 24.9167 7.82001V26.8333ZM28.75 30.6667H24.9167V38.3333H28.75V30.6667ZM36.4167 30.6667H32.5833V38.3333H36.4167V30.6667Z" fill="#282828"/>
</g>
</svg>
