<svg width="14" height="12" viewBox="0 0 14 12" fill="none" xmlns="http://www.w3.org/2000/svg">
<path d="M12.1945 6.61338H2.23489V2.12454C2.2344 1.95549 2.2688 1.78803 2.33608 1.63185C2.40337 1.47567 2.5022 1.33388 2.62686 1.21467L2.63724 1.2047C2.83261 1.01713 3.08344 0.892122 3.35547 0.846764C3.62751 0.801406 3.90747 0.837907 4.15712 0.951279C3.92135 1.32819 3.82335 1.77005 3.8787 2.20665C3.93405 2.64325 4.13957 3.04955 4.4626 3.36097L4.74663 3.63406L4.22383 4.13676L4.81066 4.70101L5.33347 4.19834L8.23029 1.41308L8.75309 0.910405L8.16622 0.346132L7.64339 0.848808L7.35936 0.575712C7.0193 0.249655 6.57103 0.0486612 6.09267 0.00775649C5.61431 -0.0331482 5.13619 0.0886293 4.74162 0.351868C4.32555 0.0992243 3.83249 -0.00984383 3.34342 0.0425809C2.85436 0.0950056 2.39838 0.305806 2.0504 0.640351L2.04003 0.650327C1.83804 0.843471 1.67791 1.07322 1.56889 1.32627C1.45988 1.57931 1.40414 1.85064 1.40492 2.12454V6.61338H0.574951V7.4114H1.40492V8.177C1.4049 8.24133 1.41569 8.30523 1.43687 8.36625L2.20895 10.5932C2.25015 10.7124 2.32938 10.8162 2.43538 10.8896C2.54137 10.9631 2.66875 11.0026 2.79942 11.0025H3.134L2.83143 12H3.69597L3.99857 11.0025H9.39595L9.70719 12H10.5735L10.2622 11.0025H10.7999C10.9306 11.0026 11.058 10.9631 11.164 10.8897C11.27 10.8162 11.3493 10.7125 11.3905 10.5932L12.1625 8.36625C12.1837 8.30523 12.1945 8.24133 12.1945 8.177V7.4114H13.0245V6.61338H12.1945ZM5.04951 1.13998C5.27817 0.920611 5.58799 0.797407 5.91101 0.797407C6.23402 0.797407 6.54385 0.920611 6.7725 1.13998L7.05648 1.41308L5.33354 3.06969L5.04951 2.79664C4.82137 2.57678 4.69324 2.27889 4.69324 1.96831C4.69324 1.65774 4.82137 1.35984 5.04951 1.13998V1.13998ZM11.3645 8.14458L10.6504 10.2045H2.94897L2.23489 8.14458V7.4114H11.3645V8.14458Z" fill="black"/>
</svg>
