<svg width="18" height="20" viewBox="0 0 18 20" fill="none" xmlns="http://www.w3.org/2000/svg">
    <path
        d="M16.8 11.0571H2.4V3.83462C2.3993 3.56263 2.44904 3.29319 2.54632 3.0419C2.6436 2.79061 2.7865 2.56246 2.96674 2.37066L2.98174 2.35461C3.26421 2.05281 3.62688 1.85168 4.02019 1.77869C4.41351 1.70571 4.81829 1.76444 5.17924 1.94686C4.83835 2.5533 4.69666 3.26426 4.77669 3.96674C4.85671 4.66923 5.15386 5.32295 5.62091 5.82402L6.03158 6.26343L5.27569 7.07227L6.12416 7.98014L6.88005 7.17134L11.0684 2.68989L11.8243 1.88109L10.9758 0.973183L10.2198 1.78198L9.80918 1.34257C9.3175 0.817952 8.66938 0.494555 7.97774 0.42874C7.28611 0.362925 6.59482 0.558863 6.02434 0.982412C5.42277 0.575911 4.70988 0.400421 4.00277 0.484772C3.29566 0.569123 2.63639 0.908298 2.13326 1.44658L2.11826 1.46263C1.82623 1.7734 1.5947 2.14305 1.43708 2.55021C1.27946 2.95736 1.19888 3.39392 1.2 3.83462V11.0571H0V12.3411H1.2V13.573C1.19997 13.6765 1.21557 13.7793 1.2462 13.8775L2.3625 17.4606C2.42207 17.6525 2.53662 17.8194 2.68988 17.9376C2.84313 18.0558 3.0273 18.1193 3.21623 18.1191H3.69998L3.2625 19.7241H4.51249L4.95 18.1191H12.7538L13.2038 19.7241H14.4563L14.0063 18.1191H14.7836C14.9726 18.1193 15.1568 18.0558 15.3101 17.9376C15.4633 17.8194 15.5779 17.6525 15.6375 17.4606L16.7537 13.8775C16.7844 13.7793 16.8 13.6765 16.8 13.573V12.3411H18V11.0571H16.8ZM6.4695 2.25048C6.8001 1.89751 7.24805 1.69928 7.71508 1.69928C8.18211 1.69928 8.63007 1.89751 8.96066 2.25048L9.37125 2.68989L6.88016 5.35536L6.4695 4.91603C6.13964 4.56228 5.95439 4.08297 5.95439 3.58326C5.95439 3.08354 6.13964 2.60423 6.4695 2.25048V2.25048ZM15.6 13.5208L14.5676 16.8351H3.43245L2.4 13.5208V12.3411H15.6V13.5208Z"
        fill="#B99503" />
</svg>
