<svg width="15" height="15" viewBox="0 0 15 15" fill="none" xmlns="http://www.w3.org/2000/svg">
<path d="M0 12.5H6.25V13.75H0V12.5ZM0 8.75H6.25V10H0V8.75ZM13.75 6.25H1.25C0.918479 6.25 0.600537 6.1183 0.366116 5.88388C0.131696 5.64946 0 5.33152 0 5V1.25C0 0.918479 0.131696 0.600537 0.366116 0.366116C0.600537 0.131696 0.918479 0 1.25 0H13.75C14.0815 0 14.3995 0.131696 14.6339 0.366116C14.8683 0.600537 15 0.918479 15 1.25V5C15 5.33152 14.8683 5.64946 14.6339 5.88388C14.3995 6.1183 14.0815 6.25 13.75 6.25ZM1.25 1.25V5H13.75V1.25H1.25ZM13.75 15H10C9.66848 15 9.35054 14.8683 9.11612 14.6339C8.8817 14.3995 8.75 14.0815 8.75 13.75V10C8.75 9.66848 8.8817 9.35054 9.11612 9.11612C9.35054 8.8817 9.66848 8.75 10 8.75H13.75C14.0815 8.75 14.3995 8.8817 14.6339 9.11612C14.8683 9.35054 15 9.66848 15 10V13.75C15 14.0815 14.8683 14.3995 14.6339 14.6339C14.3995 14.8683 14.0815 15 13.75 15ZM10 10V13.75H13.75V10H10Z" fill="#282828"/>
</svg>
