<svg width="20" height="20" viewBox="0 0 20 20" fill="none" xmlns="http://www.w3.org/2000/svg">
<path d="M20 16.1866C19.9848 16.1722 19.9698 16.1575 19.9545 16.1433C18.2826 14.5776 16.0976 13.5534 13.6789 13.3501C13.2491 13.8971 12.8791 14.4932 12.5781 15.1284C11.656 14.7401 10.7827 14.2589 9.97004 13.6962C8.53846 12.7051 7.29491 11.4615 6.30378 10.03C5.74115 9.21726 5.25986 8.34396 4.87164 7.4219C5.50692 7.12095 6.10292 6.7508 6.64993 6.32107C6.44672 3.90238 5.42245 1.71736 3.85674 0.0455283C3.84246 0.0302406 3.82784 0.0151761 3.81345 0C2.37484 0.640633 1.08241 1.54997 0 2.66452C0.449481 4.63173 1.15026 6.5033 2.06696 8.24342C2.91437 9.85198 3.94612 11.3483 5.13433 12.7043C5.80643 13.4714 6.52863 14.1936 7.29569 14.8657C8.65161 16.0538 10.1479 17.0856 11.7566 17.933C13.4967 18.8497 15.3682 19.5505 17.3355 20C18.45 18.9176 19.3595 17.6252 20 16.1866Z" fill="white"/>
</svg>
