<svg width="25" height="25" viewBox="0 0 25 25" fill="none" xmlns="http://www.w3.org/2000/svg">
<path d="M7.52652 24.5C8.1377 24.5 8.58804 24.1848 9.32788 23.4982L13.0056 20.0989H19.4605C22.6879 20.0989 24.5 18.1404 24.5 14.7974V6.05154C24.5 2.70853 22.6879 0.75 19.4605 0.75H5.7895C2.5728 0.75 0.75 2.70853 0.75 6.05154V14.7974C0.75 18.1517 2.62641 20.0989 5.71445 20.0989H6.15406V22.8566C6.15406 23.8584 6.65801 24.5 7.52652 24.5ZM8.06264 21.9787V18.7707C8.06264 18.1066 7.78386 17.8477 7.18341 17.8477H5.86456C3.84876 17.8477 2.88375 16.7784 2.88375 14.7299V6.11908C2.88375 4.0705 3.84876 3.00118 5.86456 3.00118H19.3962C21.4012 3.00118 22.3663 4.0705 22.3663 6.11908V14.7299C22.3663 16.7784 21.4012 17.8477 19.3962 17.8477H12.8877C12.2336 17.8477 11.912 17.9603 11.4616 18.4556L8.06264 21.9787ZM7.17269 7.48104H17.9701C18.3347 7.48104 18.6349 7.16588 18.6349 6.77192C18.6349 6.38922 18.3347 6.07405 17.9701 6.07405H7.17269C6.80813 6.07405 6.51862 6.38922 6.51862 6.77192C6.51862 7.16588 6.80813 7.48104 7.17269 7.48104ZM7.17269 11.0604H17.9701C18.3347 11.0604 18.6349 10.734 18.6349 10.34C18.6349 9.9686 18.3347 9.64218 17.9701 9.64218H7.17269C6.80813 9.64218 6.51862 9.9686 6.51862 10.34C6.51862 10.734 6.80813 11.0604 7.17269 11.0604ZM7.17269 14.6286H14.2065C14.5818 14.6286 14.8713 14.3134 14.8713 13.9307C14.8713 13.5367 14.5818 13.2216 14.2065 13.2216H7.17269C6.80813 13.2216 6.51862 13.5367 6.51862 13.9307C6.51862 14.3134 6.80813 14.6286 7.17269 14.6286Z" fill="white"/>
</svg>
