<svg width="9" height="9" viewBox="0 0 9 9" fill="none" xmlns="http://www.w3.org/2000/svg">
<g clip-path="url(#clip0_785_1787)">
<path d="M4.49997 0.0899658C2.06457 0.0899658 0.0899658 2.06457 0.0899658 4.49997C0.0899658 6.93537 2.06457 8.90997 4.49997 8.90997C6.93537 8.90997 8.90997 6.93537 8.90997 4.49997C8.90997 2.06457 6.93537 0.0899658 4.49997 0.0899658ZM4.49997 8.40057C2.34627 8.40057 0.600266 6.65457 0.600266 4.49997C0.600266 2.34627 2.34627 0.600266 4.49997 0.600266C6.65367 0.600266 8.39967 2.34627 8.39967 4.49997C8.39967 6.65457 6.65457 8.40057 4.49997 8.40057Z" fill="black"/>
<path d="M4.82125 2.73059H4.23535V4.64129V5.22719H4.82125H6.73195V4.64129H4.82125V2.73059Z" fill="black"/>
</g>
<defs>
<clipPath id="clip0_785_1787">
<rect width="9" height="9" fill="white"/>
</clipPath>
</defs>
</svg>
