<svg width="1000" height="1000" viewBox="0 0 1000 1000" fill="none" xmlns="http://www.w3.org/2000/svg">
<path d="M168.1 946.7H831.9H168.1ZM858.7 949.6C872.9 949.6 885.4 938 885.4 923.5V529C896.1 531.5 900.2 532.9 907.9 532.9C952.9 532.9 986.4 486 988.7 455.3L990 440.8H988.9C989 440.8 989 438.1 988.6 436.6C987.9 434.4 986.6 432.9 985 431.4L872.9 60.1C871.3 54.6 866.3 51 860.6 51H139.4C133.7 51 128.7 54.8 127.1 60.3L16.7 430.5C14.1 432.3 12.1 434.4 11.2 437.5C10.9 438.7 11 440.7 11 440.7H10L11 455.2C13.3 485.9 47 532.6 92 532.6C99.8 532.6 103.8 531.4 114.5 528.9V923.5C114.5 937.9 127.1 949.6 141.3 949.6H858.7ZM716.7 440.7L668.4 72.6H745.6L826.1 440.7H716.7ZM445.5 440.7L461.5 72.6H535.7L551 440.7H445.5ZM174.6 440.7L254.3 72.6H332L282.7 440.7H174.6ZM168.1 765.6V498.2C178.8 517.3 203.2 532.9 229.2 532.9C258.8 532.9 282.5 512.7 296.5 490.2C310.5 512.7 334.6 532.9 364.2 532.9C393.8 532.9 418.1 512.7 432.1 490.2C446.1 512.7 470.5 532.9 500.1 532.9C529.7 532.9 554.2 512.7 568.1 490.2C582.1 512.7 606.5 532.9 636.1 532.9C665.7 532.9 690.2 512.7 704.2 490.2C718.2 512.7 741.1 532.9 770.8 532.9C796.8 532.9 821.2 517.3 831.9 498.2V765.6H168.1Z" fill="black"/>
</svg>
