<svg width="18" height="18" viewBox="0 0 18 18" fill="none" xmlns="http://www.w3.org/2000/svg">
<g clip-path="url(#clip0_220_702)">
<path d="M16.8 3.00006H6.14995L5.45995 0.717365C5.29661 0.185691 4.73577 -0.115466 4.20235 0.0420649L2.67445 0.492065C2.50613 0.541851 2.35351 0.634229 2.23135 0.760265L0.509945 2.54316C0.380508 2.67844 0.291188 2.847 0.251945 3.03006C0.0764448 3.84006 -0.408055 6.77646 0.740945 10.5751C1.88995 14.3737 3.92095 16.5679 4.51795 17.1496C4.65171 17.2809 4.81918 17.3727 5.00185 17.4148L7.42975 17.9749C7.50481 17.9922 7.58161 18.001 7.65865 18.001C7.75654 18.0009 7.85392 17.9868 7.94785 17.9593L8.79325 17.71L9.47455 17.509C9.73392 17.4342 9.95219 17.258 10.0799 17.0203C10.2073 16.7865 10.2353 16.5114 10.1577 16.2568L9.77755 15.0001H16.8C17.4627 15.0001 18 14.4628 18 13.8001V4.20006C18 3.53732 17.4627 3.00006 16.8 3.00006ZM12.075 8.91006L17.3631 4.00026C17.3868 4.06422 17.3993 4.13183 17.4 4.20006V13.8001C17.3991 13.8643 17.3878 13.9281 17.3667 13.9888L12.075 8.91006ZM16.8 3.60006C16.834 3.60056 16.8679 3.60397 16.9014 3.61026L10.62 9.44046C10.3898 9.65389 10.0341 9.65389 9.80395 9.44046L5.48395 5.44116L5.80225 5.34726C6.06112 5.27201 6.27893 5.09593 6.40675 4.85856C6.53389 4.62495 6.56167 4.35 6.48385 4.09566L6.33295 3.60006H16.8ZM4.72015 12.3694C4.10079 11.6111 3.64025 10.7361 3.36595 9.79626C2.97848 8.61204 2.92563 7.34381 3.21325 6.13146C3.21944 6.11511 3.23321 6.1028 3.25015 6.09846L4.81225 5.63796L8.33545 8.89836L4.72015 12.3694ZM9.55015 16.7347C9.49813 16.8311 9.40945 16.9024 9.30415 16.9327L8.90635 17.05L8.17585 14.6326C8.14636 14.5281 8.06278 14.4478 7.95729 14.4224C7.8518 14.3971 7.74083 14.4306 7.66709 14.5102C7.59334 14.5898 7.56832 14.703 7.60165 14.8063L8.33245 17.2201L7.77865 17.3833C7.70902 17.4039 7.63522 17.4062 7.56445 17.3899L5.13655 16.8301C5.06131 16.8125 4.99238 16.7745 4.93735 16.7203C4.36735 16.1638 2.42125 14.0629 1.31515 10.4017C0.209045 6.74046 0.670445 3.93006 0.838145 3.15666C0.854275 3.08244 0.890614 3.01412 0.943145 2.95926L2.66275 1.17726C2.71235 1.12585 2.77433 1.08804 2.84275 1.06746L3.40105 0.903065L4.13155 3.32016C4.16977 3.44678 4.28639 3.53342 4.41865 3.53346C4.44804 3.53361 4.47727 3.52926 4.50535 3.52056C4.66387 3.47264 4.75357 3.30532 4.70575 3.14676L3.97765 0.733565L4.37185 0.617465C4.5896 0.551826 4.81961 0.67372 4.88755 0.890765L5.90755 4.26876C5.93887 4.37007 5.92806 4.47973 5.87755 4.57296C5.82538 4.66931 5.73677 4.74074 5.63155 4.77126L5.23345 4.88856L5.11555 4.49856C5.0646 4.34399 4.8997 4.25823 4.7439 4.30528C4.58809 4.35233 4.49822 4.51503 4.54135 4.67196L4.65805 5.05836L3.08065 5.52336C2.86439 5.58655 2.69585 5.75656 2.63455 5.97336C2.3181 7.29415 2.3726 8.67668 2.79205 9.96846C3.16041 11.2796 3.88137 12.4646 4.87645 13.3945C5.04565 13.5437 5.28 13.5947 5.49595 13.5295L7.07725 13.0633L7.19515 13.4533C7.22464 13.5577 7.30822 13.638 7.41371 13.6634C7.5192 13.6888 7.63017 13.6552 7.70391 13.5756C7.77766 13.496 7.80268 13.3828 7.76935 13.2796L7.65265 12.8932L8.04655 12.7771C8.26433 12.7119 8.49407 12.8336 8.56255 13.0504L9.58255 16.4287C9.61411 16.5306 9.60296 16.6411 9.55165 16.7347H9.55015ZM9.59605 14.4001L9.13645 12.8788C8.97286 12.3461 8.41059 12.0447 7.87645 12.2035L5.32645 12.9553C5.30813 12.9608 5.2883 12.9572 5.27305 12.9457C5.23105 12.9088 5.18305 12.8629 5.12755 12.8107L8.77675 9.30666L9.39595 9.87996C9.85709 10.3052 10.5674 10.3052 11.0286 9.87996L11.6346 9.31716L16.9167 14.3872C16.8783 14.3953 16.8392 14.3996 16.8 14.4001H9.59605Z" fill="#282828"/>
<path d="M7.8 4.80001H12.6C12.7657 4.80001 12.9 4.6657 12.9 4.50001C12.9 4.33432 12.7657 4.2 12.6 4.2H7.8C7.63431 4.2 7.5 4.33432 7.5 4.50001C7.5 4.6657 7.63431 4.80001 7.8 4.80001Z" fill="#282828"/>
<path d="M16.5001 6.60001C16.3344 6.60001 16.2001 6.73432 16.2001 6.90001V11.1C16.2001 11.2657 16.3344 11.4 16.5001 11.4C16.6658 11.4 16.8001 11.2657 16.8001 11.1V6.90001C16.8001 6.73432 16.6658 6.60001 16.5001 6.60001Z" fill="#282828"/>
</g>
<defs>
<clipPath id="clip0_220_702">
<rect width="18" height="18" fill="white"/>
</clipPath>
</defs>
</svg>
