<svg width="11" height="17" viewBox="0 0 11 17" fill="none" xmlns="http://www.w3.org/2000/svg">
<path d="M1.7096 1.0924L1.60001 1.19762V3.45971V5.72179L1.7096 5.82701C1.84557 5.96736 2.034 5.97173 2.16107 5.83575L2.25755 5.7349V3.46408V1.19762L2.14796 1.0924C2.09098 1.03105 1.99013 0.982812 1.92878 0.982812C1.86743 0.982812 1.76658 1.03105 1.7096 1.0924Z" fill="#B99503"/>
<path d="M7.87763 1.02649C7.82502 1.04835 7.75929 1.11423 7.73728 1.16684C7.67156 1.3203 7.50045 16.1596 7.56197 16.3437C7.61895 16.5146 7.79879 16.6943 7.97848 16.7646C8.17581 16.839 8.90782 16.8698 9.24987 16.8172C9.58301 16.7646 9.71899 16.6812 9.88119 16.4533L9.98204 16.3042L9.95565 12.8059C9.92053 8.93925 9.93817 9.1717 9.62251 8.51399C9.42955 8.1195 9.39896 7.86519 9.51292 7.646C9.55242 7.57154 9.75395 7.40497 10.0126 7.23386C10.4949 6.91383 10.7053 6.69902 10.885 6.33075C10.999 6.10282 11.0033 6.05895 10.999 5.45401C10.9946 4.17826 10.7359 3.04721 10.2712 2.26259C10.0651 1.91617 9.56537 1.42083 9.24533 1.25425C8.80713 1.02649 8.15379 0.916903 7.87763 1.02649ZM8.68427 1.72791C9.55225 2.02172 10.1179 3.02552 10.3019 4.62132C10.4685 6.02415 10.3896 6.22585 9.44703 6.82642C9.26298 6.94475 9.10952 7.0851 9.02178 7.22091C8.71049 7.69003 8.71486 8.10201 9.03489 8.79032L9.24533 9.24617L9.27593 10.649C9.29341 11.4205 9.30669 12.9724 9.31106 14.0991L9.31543 16.1464L9.1181 16.1726C8.89454 16.2077 8.24137 16.1857 8.1975 16.142C8.18002 16.1289 8.1975 13.5116 8.237 10.3333C8.3202 3.46389 8.35096 1.64017 8.39046 1.64017C8.4081 1.64017 8.53971 1.67967 8.68427 1.72791Z" fill="#B99503"/>
<path d="M0.245407 1.14038C0.192797 1.2061 0.153298 1.31569 0.153298 1.38141C0.153298 1.45151 0.122542 2.0477 0.0832053 2.70525C0.0480778 3.35843 0.0131121 4.33164 0.00874144 4.86211L0 5.82658L0.162202 6.2957C0.249939 6.55001 0.394496 6.90064 0.482234 7.07158C0.784784 7.67652 0.780251 7.60643 0.749656 11.1091C0.705788 16.1944 0.701417 16.0717 0.793525 16.2601C0.995225 16.6897 1.38972 16.8738 2.03416 16.8432C2.63472 16.817 3.00737 16.5714 3.13007 16.1199C3.15646 16.0234 3.15646 14.5023 3.1257 11.9991C3.07746 7.51448 3.06435 7.75552 3.41498 7.01039C3.52457 6.78247 3.66929 6.43168 3.73501 6.23451C3.85771 5.87498 3.85771 5.86187 3.85334 4.79655C3.84897 4.20472 3.81384 3.16142 3.77451 2.47312C3.70441 1.30695 3.69114 1.215 3.60356 1.12289C3.47649 0.986917 3.23966 1.00456 3.1257 1.15802C3.04687 1.26761 3.04687 1.30711 3.11259 2.38554C3.14772 2.99922 3.19142 3.96806 3.20907 4.53366C3.23966 5.6953 3.21781 5.84439 2.92853 6.48445C2.38495 7.7076 2.42007 7.28235 2.47706 11.9685C2.49891 14.1429 2.50781 15.9579 2.49454 15.9974C2.4463 16.1201 2.23149 16.1947 1.91145 16.1947C1.65277 16.1947 1.58705 16.177 1.48183 16.0895C1.38098 16.0017 1.3635 15.9537 1.35913 15.752C1.35913 15.6204 1.37661 13.8055 1.39425 11.7188C1.42938 7.97939 1.42938 7.91804 1.34164 7.5454C1.2934 7.33496 1.18381 7.03241 1.10061 6.8702C1.02161 6.70363 0.885796 6.39234 0.806799 6.17753L0.65771 5.78303L0.666451 4.81857C0.670822 4.28809 0.701579 3.31488 0.740915 2.66171C0.780413 2.00416 0.811008 1.40796 0.811008 1.33334C0.810846 1.03953 0.425091 0.908082 0.245407 1.14038Z" fill="#B99503"/>
</svg>
