<svg width="24" height="24" viewBox="0 0 24 24" fill="none" xmlns="http://www.w3.org/2000/svg">
    <path d="M11.9998 23.7129L14.4855 23.1392L12.5733 21.2271L11.9998 23.7129Z" fill="#B99503" />
    <path
        d="M11.5093 22.0754L11.9206 20.2931C11.9216 20.2887 11.9231 20.2846 11.9243 20.2803C11.9262 20.273 11.9282 20.2656 11.9305 20.2584C11.9328 20.2511 11.9351 20.2451 11.9376 20.2385C11.9401 20.2319 11.9423 20.2261 11.9449 20.22C11.9481 20.2128 11.9515 20.2058 11.955 20.1989C11.9576 20.1936 11.9603 20.1886 11.963 20.1836C11.967 20.1761 11.9714 20.1691 11.9758 20.162C11.9787 20.1575 11.9815 20.153 11.9845 20.1486C11.9894 20.1416 11.9945 20.1347 11.9998 20.128C12.0031 20.1238 12.0063 20.1197 12.0097 20.1157C12.015 20.1092 12.0209 20.103 12.0267 20.0968C12.0291 20.0943 12.0312 20.0915 12.0337 20.0892L17.5763 14.5465C16.029 11.3638 13.1677 9.46954 9.88459 9.46954C7.47716 9.46954 5.25303 10.5 3.6219 12.3711C1.97919 14.2555 1.05355 16.8822 1.0022 19.7904C1.97338 20.2801 5.96116 22.1619 9.88459 22.1619C10.4273 22.1611 10.9696 22.1322 11.5093 22.0754V22.0754Z"
        fill="#B99503" />
    <path d="M12.9277 20.3879L19.5083 13.8073L21.9013 16.2002L15.3207 22.7808L12.9277 20.3879Z"
        fill="#B99503" />
    <path
        d="M9.8846 8.62339C12.2212 8.62339 14.1154 6.7292 14.1154 4.3926C14.1154 2.056 12.2212 0.161804 9.8846 0.161804C7.548 0.161804 5.65381 2.056 5.65381 4.3926C5.65381 6.7292 7.548 8.62339 9.8846 8.62339Z"
        fill="#B99503" />
    <path
        d="M23 14.405C23 14.0703 22.9007 13.7432 22.7148 13.4649C22.5288 13.1866 22.2645 12.9697 21.9553 12.8417C21.646 12.7136 21.3058 12.6801 20.9775 12.7454C20.6493 12.8107 20.3477 12.9719 20.1111 13.2085L22.5043 15.6018C22.662 15.445 22.787 15.2585 22.8721 15.0531C22.9572 14.8476 23.0007 14.6274 23 14.405V14.405Z"
        fill="#B99503" />
</svg>
