<svg width="25" height="25" viewBox="0 0 25 25" fill="none" xmlns="http://www.w3.org/2000/svg">
<path d="M19.5756 11.1135C19.1873 11.1135 18.8724 11.4283 18.8724 11.8166V22.1295C18.8724 22.7757 18.3467 23.3014 17.7005 23.3014H2.70003C2.05384 23.3014 1.52812 22.7757 1.52812 22.1295V7.12899C1.52812 6.4828 2.05384 5.95708 2.70003 5.95708H13.0129C13.4012 5.95708 13.716 5.64225 13.716 5.25393C13.716 4.8656 13.4012 4.55078 13.0129 4.55078H2.70003C1.27841 4.55078 0.121826 5.70736 0.121826 7.12899V22.1295C0.121826 23.5511 1.27841 24.7077 2.70003 24.7077H17.7005C19.1221 24.7077 20.2787 23.5511 20.2787 22.1295V11.8166C20.2787 11.4283 19.9639 11.1135 19.5756 11.1135Z" fill="#777777"/>
<path d="M23.6423 2.51269L22.3164 1.18679C21.6767 0.547112 20.6359 0.547112 19.9961 1.18679L9.38923 11.7937C9.29107 11.8919 9.22417 12.0169 9.19689 12.153L8.53392 15.4677C8.48784 15.6983 8.55998 15.9366 8.72625 16.1028C8.85943 16.236 9.03882 16.3088 9.22342 16.3088C9.26932 16.3088 9.31544 16.3043 9.36129 16.2951L12.676 15.6322C12.8121 15.6049 12.9371 15.538 13.0353 15.4398L23.6423 4.83294C23.6423 4.83294 23.6423 4.83294 23.6423 4.83289C24.2819 4.19326 24.2819 3.15241 23.6423 2.51269ZM12.1915 14.2949L10.1198 14.7093L10.5342 12.6376L19.1674 4.00425L20.8248 5.66162L12.1915 14.2949ZM22.6479 3.83855L21.8192 4.66723L20.1618 3.00986L20.9905 2.18123C21.0819 2.08982 21.2306 2.08977 21.322 2.18118L22.6478 3.50708C22.7393 3.59844 22.7393 3.74718 22.6479 3.83855Z" fill="#777777"/>
</svg>
