<svg width="22" height="19" viewBox="0 0 22 19" fill="none" xmlns="http://www.w3.org/2000/svg">
<path d="M21 15.593H7.25M4.75 15.593H1M21 3.62859H7.25M4.75 3.62859H1M14.75 9.61078H1M21 9.61078H17.25M6 17.9858C6.33152 17.9858 6.64946 17.8598 6.88388 17.6354C7.1183 17.411 7.25 17.1067 7.25 16.7894V14.3965C7.25 14.0792 7.1183 13.7749 6.88388 13.5505C6.64946 13.3261 6.33152 13.2001 6 13.2001C5.66848 13.2001 5.35054 13.3261 5.11612 13.5505C4.8817 13.7749 4.75 14.0792 4.75 14.3965V16.7894C4.75 17.1067 4.8817 17.411 5.11612 17.6354C5.35054 17.8598 5.66848 17.9858 6 17.9858V17.9858ZM6 6.02146C6.33152 6.02146 6.64946 5.89541 6.88388 5.67104C7.1183 5.44666 7.25 5.14234 7.25 4.82503V2.43215C7.25 2.11484 7.1183 1.81052 6.88388 1.58614C6.64946 1.36177 6.33152 1.23571 6 1.23571C5.66848 1.23571 5.35054 1.36177 5.11612 1.58614C4.8817 1.81052 4.75 2.11484 4.75 2.43215V4.82503C4.75 5.14234 4.8817 5.44666 5.11612 5.67104C5.35054 5.89541 5.66848 6.02146 6 6.02146ZM16 12.0037C16.3315 12.0037 16.6495 11.8776 16.8839 11.6532C17.1183 11.4288 17.25 11.1245 17.25 10.8072V8.41434C17.25 8.09702 17.1183 7.79271 16.8839 7.56833C16.6495 7.34395 16.3315 7.2179 16 7.2179C15.6685 7.2179 15.3505 7.34395 15.1161 7.56833C14.8817 7.79271 14.75 8.09702 14.75 8.41434V10.8072C14.75 11.1245 14.8817 11.4288 15.1161 11.6532C15.3505 11.8776 15.6685 12.0037 16 12.0037V12.0037Z" stroke="black" stroke-linecap="round" stroke-linejoin="round"/>
</svg>
