<svg width="17" height="12" viewBox="0 0 17 12" fill="none" xmlns="http://www.w3.org/2000/svg">
<path d="M16.11 0H0.890021C0.400562 0 0 0.443634 0 0.882327C0 1.32102 0.400562 1.7643 0.890021 1.7643H1.105V3.52896H15.9166V1.7643H16.11C16.5998 1.7643 17 1.32102 17 0.882327C17 0.443634 16.5998 0 16.11 0ZM8.5 2.65404C8.25421 2.65404 8.05517 2.44969 8.05517 2.19805C8.05517 1.94641 8.25421 1.74207 8.5 1.74207C8.74615 1.74207 8.94483 1.94641 8.94483 2.19805C8.94483 2.44969 8.74615 2.65404 8.5 2.65404ZM1.105 7.05791H15.9166V4.23517H1.105V7.05791ZM8.5 5.16126C8.74615 5.16126 8.94483 5.36525 8.94483 5.61689C8.94483 5.86889 8.74615 6.07288 8.5 6.07288C8.25421 6.07288 8.05517 5.86889 8.05517 5.61689C8.05481 5.36525 8.25421 5.16126 8.5 5.16126ZM1.105 9.49207V11.544C1.105 11.7946 1.13652 12 1.38125 12H3.16058C3.40531 12 3.51617 11.7946 3.51617 11.544V10.2346H13.5054V11.544C13.5054 11.7946 13.5947 12 13.8391 12H15.6188C15.8628 12 15.9163 11.7946 15.9163 11.544V7.76448H1.105V9.49207ZM8.5 8.58045C8.74615 8.58045 8.94483 8.7848 8.94483 9.03609C8.94483 9.28843 8.74615 9.49172 8.5 9.49172C8.25421 9.49172 8.05517 9.28843 8.05517 9.03609C8.05481 8.78515 8.25421 8.58045 8.5 8.58045Z" fill="#282828"/>
</svg>
