<svg width="15" height="15" viewBox="0 0 15 15" fill="none" xmlns="http://www.w3.org/2000/svg">
<g clip-path="url(#clip0_625_11374)">
<path d="M2.59952 14.085C2.59952 14.085 1.98752 14.085 1.98752 13.473V8.5725C1.98752 8.5725 1.37552 8.5725 0.762024 8.5725C0.150024 8.5725 0.150024 7.959 0.150024 7.959L6.88352 1.2225C6.88352 1.2225 7.14302 0.916504 7.50002 0.916504C7.85702 0.916504 8.11202 1.227 8.11202 1.227L14.85 7.959C14.85 7.959 14.85 8.571 14.238 8.571C13.626 8.571 13.0125 8.571 13.0125 8.571V13.4715C13.0125 13.4715 13.0125 14.0835 12.4005 14.0835M7.50002 1.5285C7.19852 1.5285 6.88802 1.8345 6.88802 1.8345L0.966024 7.959C0.966024 7.959 1.37402 7.959 1.98752 7.959C2.60102 7.959 2.59952 8.571 2.59952 8.571V13.4715H12.399V8.5725C12.399 8.5725 12.399 7.9605 13.011 7.9605C13.623 7.9605 14.0325 7.9605 14.0325 7.9605L8.11202 1.8345C8.11202 1.8345 7.82702 1.5285 7.50002 1.5285Z" fill="#B99503"/>
<path d="M4.43701 7.95902H10.5615V9.18452H4.43701V7.95902ZM6.88801 5.50952H8.11351V11.634H6.88801V5.50952Z" fill="#B99503"/>
</g>
<defs>
<clipPath id="clip0_625_11374">
<rect width="15" height="15" fill="white"/>
</clipPath>
</defs>
</svg>
