<svg width="24" height="24" viewBox="0 0 24 24" fill="none" xmlns="http://www.w3.org/2000/svg">
    <g clip-path="url(#clip0_344_2744)">
        <path fill-rule="evenodd" clip-rule="evenodd"
            d="M9.46667 11.6667C9.46667 13.1395 8.27276 14.3333 6.79999 14.3333C5.32722 14.3333 4.1333 13.1395 4.1333 11.6667C4.1333 10.1939 5.32722 9 6.79999 9C8.27276 9 9.46667 10.1939 9.46667 11.6667ZM8.26666 11.6667C8.26666 12.4767 7.61002 13.1333 6.79999 13.1333C5.98997 13.1333 5.33331 12.4767 5.33331 11.6667C5.33331 10.8567 5.98997 10.2 6.79999 10.2C7.61002 10.2 8.26666 10.8567 8.26666 11.6667Z"
            fill="#B99503" />
        <path
            d="M4.20001 18.6C4.20001 17.1641 5.36408 15.9999 6.80004 15.9999C8.23599 15.9999 9.40006 17.1641 9.40006 18.6H10.6C10.6 16.5013 8.89874 14.7999 6.80004 14.7999C4.70133 14.7999 3 16.5013 3 18.6H4.20001Z"
            fill="#B99503" />
        <path fill-rule="evenodd" clip-rule="evenodd"
            d="M20.3999 10.2C20.3999 10.5313 20.1312 10.8 19.7999 10.8H13.1999C12.8685 10.8 12.5999 10.5313 12.5999 10.2C12.5999 9.86866 12.8685 9.59998 13.1999 9.59998H19.7999C20.1312 9.59998 20.3999 9.86866 20.3999 10.2Z"
            fill="#B99503" />
        <path fill-rule="evenodd" clip-rule="evenodd"
            d="M20.3999 13.8001C20.3999 14.1314 20.1312 14.4001 19.7999 14.4001H13.1999C12.8685 14.4001 12.5999 14.1314 12.5999 13.8001C12.5999 13.4688 12.8685 13.2001 13.1999 13.2001H19.7999C20.1312 13.2001 20.3999 13.4688 20.3999 13.8001Z"
            fill="#B99503" />
        <path fill-rule="evenodd" clip-rule="evenodd"
            d="M20.3999 17.4C20.3999 17.7314 20.1312 18 19.7999 18H13.1999C12.8685 18 12.5999 17.7314 12.5999 17.4C12.5999 17.0687 12.8685 16.8 13.1999 16.8H19.7999C20.1312 16.8 20.3999 17.0687 20.3999 17.4Z"
            fill="#B99503" />
        <path fill-rule="evenodd" clip-rule="evenodd"
            d="M8.39984 2.3999C7.40571 2.3999 6.59982 3.20579 6.59982 4.19992H2.99979C1.34292 4.19992 -0.000244141 5.54308 -0.000244141 7.19995V18.6001C-0.000244141 20.2569 1.34292 21.6001 2.99979 21.6001H21C22.6568 21.6001 24 20.2569 24 18.6001V7.19995C24 5.54308 22.6568 4.19992 21 4.19992H17.3999C17.3999 3.20579 16.594 2.3999 15.5999 2.3999H8.39984ZM17.3999 5.39993C17.3999 6.39405 16.594 7.19995 15.5999 7.19995H8.39984C7.40571 7.19995 6.59982 6.39405 6.59982 5.39993H2.99979C2.00566 5.39993 1.19977 6.20582 1.19977 7.19995V18.6001C1.19977 19.5941 2.00566 20.4001 2.99979 20.4001H21C21.9941 20.4001 22.8 19.5941 22.8 18.6001V7.19995C22.8 6.20582 21.9941 5.39993 21 5.39993H17.3999ZM7.79984 4.19992C7.79984 3.86855 8.06847 3.59991 8.39984 3.59991H15.5999C15.9312 3.59991 16.1999 3.86855 16.1999 4.19992V5.39993C16.1999 5.7313 15.9312 5.99994 15.5999 5.99994H8.39984C8.06847 5.99994 7.79984 5.7313 7.79984 5.39993V4.19992Z"
            fill="#B99503" />
    </g>
    <defs>
        <clipPath id="clip0_344_2744">
            <rect width="24" height="24" fill="white" />
        </clipPath>
    </defs>
</svg>
