<svg width="980" height="980" viewBox="0 0 980 980" fill="none" xmlns="http://www.w3.org/2000/svg">
<path d="M165.868 3.26C162.398 5.21 156.108 9.98005 151.988 13.6701C137.248 27.5501 138.108 11.5 138.548 267.12L138.978 498.46L87.3781 499.11C30.5781 499.76 29.9181 499.98 15.3981 514.29C-0.861871 530.12 0.00812968 515.16 0.00812968 739.34C0.00812968 929.05 0.22813 940.32 4.12813 948.56C9.32813 959.84 25.5881 974.79 35.9981 977.61C41.8481 979.34 180.398 979.99 491.088 979.99H937.718L948.558 974.78C961.568 968.71 969.588 960.47 975.438 947.46C979.778 937.92 979.988 934.24 979.988 739.32C979.988 544.4 979.768 540.72 975.438 531.18C969.588 518.17 961.558 509.93 948.558 503.86C938.148 498.87 935.768 498.65 889.588 498.65H841.238V267.75C841.238 14.95 841.888 28.39 828.658 14.51C815.218 0.219996 813.698 -6.34311e-05 739.338 -6.34311e-05C663.888 -6.34311e-05 662.588 0.219976 648.708 16.04C645.018 20.38 640.898 23.8499 639.598 23.8499C638.078 23.8499 637.428 99.73 637.428 261.26V498.67H614.658H591.888V269.72C591.888 104.29 591.238 38.38 589.498 32.31C586.028 21.04 576.278 9.98 565.218 4.56C556.328 0.219995 552.428 0.00999516 489.118 0.00999516C415.838 0.00999516 413.888 0.229975 400.878 14.54C387.218 29.07 388.088 11.94 388.088 266.69V498.67H365.318H342.548L342.118 266.03L341.468 33.61L335.398 23.1999C332.148 17.5599 325.208 10.19 320.438 6.93998L311.548 1.08998L241.948 0.439976C182.128 -2.43782e-05 171.508 0.439995 165.868 3.26ZM303.538 59.63V82.3999H239.578H175.618V59.63V36.86H239.578H303.538V59.63ZM554.608 60.06L555.258 82.39H489.998H424.958V59.6201V36.8499L489.568 37.28L553.958 37.93L554.608 60.06ZM804.378 59.63V82.3999H739.338H674.298V59.63V36.86H739.338H804.378V59.63ZM303.538 310.05V498.67H239.578H175.618V310.04V121.41H239.578H303.538V310.05ZM555.048 310.05V498.67H489.998H424.958V310.04V121.41H489.998H555.038V310.05H555.048ZM804.378 310.05V498.67H739.338H674.298V310.04V121.41H739.338H804.378V310.05ZM941.188 540.08C942.268 541.82 943.138 627.67 943.138 739.77C943.138 915.6 942.708 936.64 939.668 939.67C936.628 942.7 892.838 943.14 490.868 943.14C187.768 943.14 43.7981 942.49 40.9781 940.97C36.8581 938.8 36.8581 934.25 36.8581 739.34C36.8581 568.93 37.2881 539.87 39.8981 538.35C41.6381 537.48 244.788 536.62 491.088 536.83C875.058 537.05 939.448 537.48 941.188 540.08Z" fill="black"/>
<path d="M138.768 655.86V711.15H157.198H175.628V655.86V600.57H157.198H138.768V655.86Z" fill="black"/>
<path d="M305.708 655.86V711.15H324.138H342.568V655.86V600.57H324.138H305.708V655.86Z" fill="black"/>
<path d="M472.008 601.87C471.138 602.74 470.488 627.67 470.488 657.37V711.14H489.998H509.508L509.078 656.29L508.428 601.65L491.088 601C481.328 600.79 472.878 601.01 472.008 601.87Z" fill="black"/>
<path d="M637.438 655.86V711.15H655.868H674.298V655.86V600.57H655.868H637.438V655.86Z" fill="black"/>
<path d="M804.378 655.86V711.15H822.808H841.238V655.86V600.57H822.808H804.378V655.86Z" fill="black"/>
<path d="M138.768 822.81V878.1H157.198H175.628V822.81V767.52H157.198H138.768V822.81Z" fill="black"/>
<path d="M305.708 822.81V878.1H324.138H342.568V822.81V767.52H324.138H305.708V822.81Z" fill="black"/>
<path d="M470.488 822.81V878.1H489.998H509.508V822.81V767.52H489.998H470.488V822.81Z" fill="black"/>
<path d="M637.438 822.81V878.1H655.868H674.298V822.81V767.52H655.868H637.438V822.81Z" fill="black"/>
<path d="M804.378 822.81V878.1H822.808H841.238V822.81V767.52H822.808H804.378V822.81Z" fill="black"/>
</svg>
