<svg width="40" height="40" viewBox="0 0 40 40" fill="none" xmlns="http://www.w3.org/2000/svg">
<g clip-path="url(#clip0_344_2864)">
<path fill-rule="evenodd" clip-rule="evenodd" d="M30 40H10C7.34787 39.9999 4.8044 38.9463 2.92906 37.0709C1.05372 35.1956 0.000116023 32.6521 0 30L0 10C0.000116023 7.34787 1.05372 4.8044 2.92906 2.92906C4.8044 1.05372 7.34787 0.000116023 10 0L30 0C32.6522 0 35.1957 1.05357 37.0711 2.92893C38.9464 4.8043 40 7.34784 40 10V30C40 32.6522 38.9464 35.1957 37.0711 37.0711C35.1957 38.9464 32.6522 40 30 40Z" fill="#FF3A55"/>
<path fill-rule="evenodd" clip-rule="evenodd" d="M18.75 11.25H30C31.442 11.2499 32.829 10.696 33.8744 9.70276C34.9198 8.70948 35.5439 7.35266 35.6177 5.9125C35.6915 4.47235 35.2094 3.05885 34.271 1.96391C33.3325 0.868981 32.0095 0.176239 30.575 0.02875C30.3837 0.018125 30.1944 0 30 0H10C7.34787 0.000116023 4.8044 1.05372 2.92906 2.92906C1.05372 4.8044 0.000116023 7.34787 0 10L0 30C0.000116027 25.0272 1.97559 20.2582 5.49188 16.7419C9.00816 13.2256 13.7772 11.2501 18.75 11.25Z" fill="#FF796C"/>
<path fill-rule="evenodd" clip-rule="evenodd" d="M30 20C28.0222 20 26.0888 20.5865 24.4443 21.6853C22.7998 22.7841 21.5181 24.3459 20.7612 26.1732C20.0043 28.0004 19.8063 30.0111 20.1922 31.9509C20.578 33.8907 21.5304 35.6725 22.9289 37.0711C24.3275 38.4696 26.1093 39.422 28.0491 39.8079C29.9889 40.1937 31.9996 39.9957 33.8268 39.2388C35.6541 38.4819 37.2159 37.2002 38.3147 35.5557C39.4135 33.9112 40 31.9778 40 30V10C40 12.6522 38.9464 15.1957 37.0711 17.0711C35.1957 18.9464 32.6522 20 30 20Z" fill="#E00047"/>
<path d="M27.8125 13.75C28.6754 13.75 29.375 13.0504 29.375 12.1875C29.375 11.3246 28.6754 10.625 27.8125 10.625C26.9496 10.625 26.25 11.3246 26.25 12.1875C26.25 13.0504 26.9496 13.75 27.8125 13.75Z" fill="white"/>
<path fill-rule="evenodd" clip-rule="evenodd" d="M20 15C20.9889 15 21.9556 15.2932 22.7778 15.8426C23.6001 16.3921 24.2409 17.1729 24.6194 18.0866C24.9978 19.0002 25.0968 20.0055 24.9039 20.9754C24.711 21.9453 24.2348 22.8363 23.5355 23.5355C22.8363 24.2348 21.9453 24.711 20.9754 24.9039C20.0055 25.0968 19.0002 24.9978 18.0866 24.6194C17.1729 24.2409 16.3921 23.6001 15.8426 22.7778C15.2932 21.9556 15 20.9889 15 20C15.0007 18.6741 15.5277 17.4028 16.4652 16.4652C17.4028 15.5277 18.6741 15.0007 20 15ZM20 12.5C21.4833 12.5 22.9334 12.9399 24.1668 13.764C25.4001 14.5881 26.3614 15.7594 26.9291 17.1299C27.4967 18.5003 27.6453 20.0083 27.3559 21.4632C27.0665 22.918 26.3522 24.2544 25.3033 25.3033C24.2544 26.3522 22.918 27.0665 21.4632 27.3559C20.0083 27.6453 18.5003 27.4967 17.1299 26.9291C15.7594 26.3614 14.5881 25.4001 13.764 24.1668C12.9399 22.9334 12.5 21.4833 12.5 20C12.5009 18.0112 13.2914 16.1041 14.6977 14.6977C16.1041 13.2914 18.0112 12.5009 20 12.5Z" fill="white"/>
<path fill-rule="evenodd" clip-rule="evenodd" d="M32.5 13.75C32.5 12.0924 31.8415 10.5027 30.6694 9.33058C29.4973 8.15848 27.9076 7.5 26.25 7.5H13.75C12.0924 7.5 10.5027 8.15848 9.33058 9.33058C8.15848 10.5027 7.5 12.0924 7.5 13.75V26.25C7.5 27.9076 8.15848 29.4973 9.33058 30.6694C10.5027 31.8415 12.0924 32.5 13.75 32.5H26.25C27.9076 32.5 29.4973 31.8415 30.6694 30.6694C31.8415 29.4973 32.5 27.9076 32.5 26.25V13.75ZM35 13.75C35 11.4294 34.0781 9.20376 32.4372 7.56282C30.7962 5.92187 28.5706 5 26.25 5H13.75C11.4294 5 9.20376 5.92187 7.56282 7.56282C5.92187 9.20376 5 11.4294 5 13.75V26.25C5 28.5706 5.92187 30.7962 7.56282 32.4372C9.20376 34.0781 11.4294 35 13.75 35H26.25C28.5706 35 30.7962 34.0781 32.4372 32.4372C34.0781 30.7962 35 28.5706 35 26.25V13.75Z" fill="white"/>
</g>
<defs>
<clipPath id="clip0_344_2864">
<rect width="40" height="40" fill="white"/>
</clipPath>
</defs>
</svg>
