<svg width="12" height="12" viewBox="0 0 12 12" fill="none" xmlns="http://www.w3.org/2000/svg">
<path d="M1.2 12C0.87 12 0.5876 11.8826 0.3528 11.6478C0.1176 11.4126 0 11.13 0 10.8V1.2C0 0.87 0.1176 0.5874 0.3528 0.3522C0.5876 0.1174 0.87 0 1.2 0H10.8C11.13 0 11.4126 0.1174 11.6478 0.3522C11.8826 0.5874 12 0.87 12 1.2V10.8C12 11.13 11.8826 11.4126 11.6478 11.6478C11.4126 11.8826 11.13 12 10.8 12H1.2ZM1.2 10.8H10.8V1.2H1.2V10.8ZM3 9.6H9C9.33 9.6 9.6126 9.4826 9.8478 9.2478C10.0826 9.0126 10.2 8.73 10.2 8.4V6.3C10.2 6.03 10.1326 5.7824 9.9978 5.5572C9.8626 5.3324 9.68 5.15 9.45 5.01V4.2C9.45 3.7 9.275 3.275 8.925 2.925C8.575 2.575 8.15 2.4 7.65 2.4H4.35C3.85 2.4 3.425 2.575 3.075 2.925C2.725 3.275 2.55 3.7 2.55 4.2V5.01C2.32 5.15 2.1376 5.3324 2.0028 5.5572C1.8676 5.7824 1.8 6.03 1.8 6.3V8.4C1.8 8.73 1.9176 9.0126 2.1528 9.2478C2.3876 9.4826 2.67 9.6 3 9.6ZM3 8.7C2.91 8.7 2.8376 8.6726 2.7828 8.6178C2.7276 8.5626 2.7 8.49 2.7 8.4V6.3C2.7 6.13 2.7574 5.9874 2.8722 5.8722C2.9874 5.7574 3.13 5.7 3.3 5.7C3.47 5.7 3.6126 5.7574 3.7278 5.8722C3.8426 5.9874 3.9 6.13 3.9 6.3V7.5H8.1V6.3C8.1 6.13 8.1574 5.9874 8.2722 5.8722C8.3874 5.7574 8.53 5.7 8.7 5.7C8.87 5.7 9.0124 5.7574 9.1272 5.8722C9.2424 5.9874 9.3 6.13 9.3 6.3V8.4C9.3 8.49 9.2726 8.5626 9.2178 8.6178C9.1626 8.6726 9.09 8.7 9 8.7H3ZM4.8 6.6V6.3C4.8 5.91 4.67 5.575 4.41 5.295C4.15 5.015 3.83 4.86 3.45 4.83V4.2C3.45 3.94 3.535 3.725 3.705 3.555C3.875 3.385 4.09 3.3 4.35 3.3H7.65C7.91 3.3 8.125 3.385 8.295 3.555C8.465 3.725 8.55 3.94 8.55 4.2V4.83C8.17 4.86 7.85 5.015 7.59 5.295C7.33 5.575 7.2 5.91 7.2 6.3V6.6H4.8ZM1.2 10.8V1.2V10.8Z" fill="#B99503"/>
</svg>
