<svg width="24" height="24" viewBox="0 0 24 24" fill="none" xmlns="http://www.w3.org/2000/svg">
    <path
        d="M11.9999 0.705872C8.47048 0.705872 5.64695 3.5294 5.64695 7.05882V9.88235C4.44694 9.88235 3.5293 10.8 3.5293 12V21.1765C3.5293 22.3765 4.44694 23.2941 5.64695 23.2941H18.3528C19.5528 23.2941 20.4705 22.3765 20.4705 21.1765V12C20.4705 10.8 19.5528 9.88235 18.3528 9.88235V7.05882C18.3528 3.5294 15.5293 0.705872 11.9999 0.705872ZM19.0587 12V21.1765C19.0587 21.6 18.7764 21.8824 18.3528 21.8824H5.64695C5.22342 21.8824 4.94106 21.6 4.94106 21.1765V12C4.94106 11.5765 5.22342 11.2941 5.64695 11.2941H6.35283H17.647H18.3528C18.7764 11.2941 19.0587 11.5765 19.0587 12ZM7.05871 9.88235V7.05882C7.05871 4.30587 9.24695 2.11764 11.9999 2.11764C14.7528 2.11764 16.9411 4.30587 16.9411 7.05882V9.88235H7.05871Z"
        fill="#B99503" />
    <path
        d="M12 13.4117C10.8 13.4117 9.88232 14.3294 9.88232 15.5294C9.88232 16.447 10.447 17.2235 11.2941 17.5059V19.0588C11.2941 19.4823 11.5764 19.7647 12 19.7647C12.4235 19.7647 12.7058 19.4823 12.7058 19.0588V17.5059C13.5529 17.2235 14.1176 16.447 14.1176 15.5294C14.1176 14.3294 13.2 13.4117 12 13.4117ZM12 16.2353C11.5764 16.2353 11.2941 15.9529 11.2941 15.5294C11.2941 15.1059 11.5764 14.8235 12 14.8235C12.4235 14.8235 12.7058 15.1059 12.7058 15.5294C12.7058 15.9529 12.4235 16.2353 12 16.2353Z"
        fill="#B99503" />
</svg>
