<svg width="19" height="19" viewBox="0 0 19 19" fill="none" xmlns="http://www.w3.org/2000/svg">
<g clip-path="url(#clip0_220_734)">
<path d="M9.49996 19C11.4991 18.9981 13.4367 18.3084 14.9874 17.0467C16.5381 15.785 17.6075 14.0282 18.0161 12.0713C18.4246 10.1143 18.1474 8.07638 17.231 6.29966C16.3145 4.52295 14.8147 3.11564 12.9833 2.31405C12.8879 2.27182 12.7851 2.24886 12.6808 2.24648C12.5765 2.24411 12.4728 2.26236 12.3756 2.30021C12.2784 2.33805 12.1896 2.39473 12.1144 2.46699C12.0392 2.53925 11.979 2.62567 11.9372 2.72127C11.8955 2.81688 11.8731 2.91979 11.8713 3.02408C11.8694 3.12838 11.8882 3.23201 11.9266 3.32902C11.9649 3.42603 12.0221 3.5145 12.0947 3.58935C12.1674 3.6642 12.2541 3.72395 12.35 3.76517C13.8502 4.41993 15.0792 5.5713 15.8304 7.02566C16.5816 8.48002 16.8091 10.1487 16.4747 11.7511C16.1402 13.3534 15.2643 14.7918 13.994 15.8243C12.7238 16.8567 11.1369 17.4203 9.49996 17.4203C7.86306 17.4203 6.27607 16.8567 5.00586 15.8243C3.73565 14.7918 2.85968 13.3534 2.52524 11.7511C2.19081 10.1487 2.41831 8.48002 3.16949 7.02566C3.92067 5.5713 5.14971 4.41993 6.64995 3.76517C6.74578 3.72395 6.83251 3.6642 6.90517 3.58935C6.97782 3.5145 7.03497 3.42603 7.07332 3.32902C7.11168 3.23201 7.13048 3.12838 7.12865 3.02408C7.12683 2.91979 7.10441 2.81688 7.06268 2.72127C7.02096 2.62567 6.96075 2.53925 6.88551 2.46699C6.81028 2.39473 6.72151 2.33805 6.6243 2.30021C6.5271 2.26236 6.42337 2.24411 6.31908 2.24648C6.21479 2.24886 6.112 2.27182 6.01662 2.31405C4.18522 3.11564 2.68539 4.52295 1.76896 6.29966C0.852526 8.07638 0.5753 10.1143 0.983831 12.0713C1.39236 14.0282 2.46177 15.785 4.01249 17.0467C5.56321 18.3084 7.50082 18.9981 9.49996 19Z" fill="#E30613"/>
<path d="M9.49991 7.91666C9.70987 7.91666 9.91123 7.83325 10.0597 7.68479C10.2082 7.53632 10.2916 7.33496 10.2916 7.12499V0.791666C10.2916 0.581703 10.2082 0.38034 10.0597 0.231874C9.91123 0.0834075 9.70987 0 9.49991 0C9.28995 0 9.08859 0.0834075 8.94012 0.231874C8.79166 0.38034 8.70825 0.581703 8.70825 0.791666V7.12499C8.70825 7.33496 8.79166 7.53632 8.94012 7.68479C9.08859 7.83325 9.28995 7.91666 9.49991 7.91666Z" fill="#E30613"/>
</g>
<defs>
<clipPath id="clip0_220_734">
<rect width="19" height="19" fill="white"/>
</clipPath>
</defs>
</svg>
