<svg width="19" height="20" viewBox="0 0 19 20" fill="none" xmlns="http://www.w3.org/2000/svg">
    <path
        d="M14.9279 0.5H4.07077C3.32126 0.5 2.71362 1.10764 2.71362 1.85714V18.1429C2.71362 18.8924 3.32126 19.5 4.07077 19.5H14.9279C15.6774 19.5 16.2851 18.8924 16.2851 18.1429V1.85714C16.2851 1.10764 15.6774 0.5 14.9279 0.5ZM10.1779 18.1429H8.82077C8.44596 18.1429 8.14219 17.8391 8.14219 17.4643C8.14219 17.0895 8.44596 16.7857 8.82077 16.7857H10.1779C10.5527 16.7857 10.8565 17.0895 10.8565 17.4643C10.8565 17.8391 10.5527 18.1429 10.1779 18.1429ZM14.9279 14.75C14.9279 15.1248 14.6241 15.4286 14.2493 15.4286H4.74934C4.37453 15.4286 4.07077 15.1248 4.07077 14.75V2.53571C4.07077 2.16091 4.37453 1.85714 4.74934 1.85714H14.2493C14.6241 1.85714 14.9279 2.16091 14.9279 2.53571V14.75Z"
        fill="#B99503" />
</svg>
