<svg width="980" height="760" viewBox="0 0 980 760" fill="none" xmlns="http://www.w3.org/2000/svg">
<path d="M85.95 4.6001C81.6 6.77008 76.27 11.1201 74.1 14.0801C70.15 19.42 70.15 22.9701 69.56 381.38L69.16 743.55H34.58H0V751.45V759.35H490H980V751.45V743.55H945.42H910.84V459.23V175.11L906.49 168.59C903.92 165.03 899.38 160.09 896.41 157.92C890.88 153.77 889.3 153.77 749.61 153.18L608.54 152.59V87.1901C608.54 23.7701 608.34 21.5901 604.19 14.8801C601.82 10.9301 596.68 6.58008 591.94 4.4101C584.23 0.850098 573.37 0.660095 338.84 0.660095C96.81 0.650085 93.85 0.650085 85.95 4.6001ZM590.57 21.5901L594.72 26.9201V385.14V743.55H498.89H403.06V646.54V549.53L397.33 543.8L391.6 538.07H338.85H286.1L280.37 543.8L274.64 549.53V646.54V743.55H178.81H82.98V384.94V26.1301L87.92 21.3901L92.66 16.4501H339.64H586.62L590.57 21.5901ZM888.12 169.77C897.21 173.33 897.01 163.84 897.01 462.98V743.55H752.78H608.55V456.07V168.59H746.66C822.73 168.59 886.35 169.18 888.12 169.77ZM386.86 648.12L387.26 743.55H338.85H290.44V649.11C290.44 597.15 291.03 553.88 291.82 553.08C292.61 552.49 314.15 552.09 339.63 552.29L386.26 552.88L386.86 648.12Z" fill="black"/>
<path d="M128.23 87.38L122.5 93.11V148.83V204.55L128.23 210.28L133.96 216.01H175.85H217.74L223.47 210.28L229.2 204.55V150.02C229.2 114.46 228.41 94.1 227.03 90.94C223.28 82.64 217.74 81.65 174.67 81.65H133.97L128.23 87.38ZM214.97 147.45C215.37 194.47 215.17 198.43 212.01 199.81C210.03 200.6 192.85 201.19 173.88 201.19H139.3L138.71 148.24L138.31 95.49L176.25 95.89L214.38 96.48L214.97 147.45Z" fill="black"/>
<path d="M291.43 86.5899L286.49 91.3299V148.43C286.49 201.78 286.69 205.93 290.24 210.27C293.99 215.01 294.59 215.01 337.66 215.6L381.33 216.19L386.27 211.25C391.8 205.52 391.61 209.27 391.61 135.97V90.7199L386.27 86.1799C381.33 81.8299 379.95 81.6399 338.65 81.6399C296.17 81.6499 296.17 81.6499 291.43 86.5899ZM376.39 148.83V201.19H338.85H301.31L300.72 150.81C300.52 123.15 300.72 99.4399 301.31 97.8599C301.9 95.8799 310.4 95.4899 339.25 95.8799L376.39 96.4699V148.83Z" fill="black"/>
<path d="M454.24 87.38L448.51 93.11V148.83V204.55L454.24 210.28L459.97 216.01H501.86H543.75L549.48 210.28L555.21 204.55V150.02C555.21 114.46 554.42 94.1 553.04 90.94C549.29 82.64 543.75 81.65 500.68 81.65H459.98L454.24 87.38ZM540.98 148.24C541.38 196.25 541.18 200.01 538.02 200.8C536.04 201.39 518.85 201.59 499.89 201.39L465.31 201.19L464.72 148.24L464.32 95.49L502.26 95.89L540.39 96.48L540.98 148.24Z" fill="black"/>
<path d="M131.19 293.46C123.29 297.21 122.5 302.75 122.5 359.45V413.98L128.23 419.71L133.96 425.44H175.85H217.74L223.47 419.71L229.2 413.98V359.25C229.2 303.73 228.61 299.19 221.49 293.65C217.54 290.5 137.32 290.3 131.19 293.46ZM214.37 357.28V408.65L176.43 409.24L138.3 409.64V357.28V304.92L176.43 305.32L214.37 305.91V357.28Z" fill="black"/>
<path d="M291.43 296.03L286.49 300.77V357.08C286.49 387.9 287.08 414.77 287.68 416.55C290.64 424.06 298.55 425.44 338.66 425.44C359.8 425.44 379.36 424.65 382.13 423.47C391.02 420.11 391.61 416.75 391.61 356.69V300.18L386.47 295.64C381.33 291.29 380.15 291.1 338.66 291.1C296.17 291.09 296.17 291.09 291.43 296.03ZM376.98 357.67L377.38 409.63H338.85H300.32V358.65C300.32 330.59 300.91 306.88 301.7 306.09C302.49 305.5 319.48 305.1 339.64 305.3L376.39 305.89L376.98 357.67Z" fill="black"/>
<path d="M457.2 293.46C449.3 297.21 448.51 302.75 448.51 359.45V413.98L454.24 419.71L459.97 425.44H501.86H543.75L549.48 419.71L555.21 413.98V359.25C555.21 303.73 554.62 299.19 547.5 293.65C543.54 290.5 463.33 290.3 457.2 293.46ZM540.98 357.67L541.38 409.63H502.85H464.32V357.27V304.91L502.45 305.31L540.39 305.9L540.98 357.67Z" fill="black"/>
<path d="M130.21 503.09C123.1 508.62 122.5 513.17 122.5 568.69V623.42L128.23 629.15L133.96 634.88H175.85H217.74L223.47 629.15L229.2 623.42V568.69C229.2 511.59 228.21 504.87 220.31 501.71C213.98 499.34 133.56 500.53 130.21 503.09ZM214.37 566.71V618.08L176.43 618.67L138.3 619.07V566.71V514.35L176.43 514.75L214.37 515.34V566.71Z" fill="black"/>
<path d="M456.21 503.09C449.1 508.62 448.5 513.17 448.5 568.69V623.42L454.23 629.15L459.96 634.88H501.85H543.74L549.47 629.15L555.2 623.42V568.69C555.2 513.17 554.61 508.62 547.49 503.09C545.32 501.31 532.28 500.72 501.85 500.72C471.42 500.72 458.39 501.32 456.21 503.09ZM540.38 566.71V618.08L502.44 618.67L464.31 619.07V566.71V514.35L502.44 514.75L540.38 515.34V566.71Z" fill="black"/>
<path d="M645.89 236.95L641.15 242.09V290.5V338.9L646.68 343.64C652.01 348.18 653 348.38 687.78 348.38H723.54L729.27 342.65L735 336.92V291.08C735 243.46 733.82 235.95 726.11 232.99C724.33 232.4 706.55 231.8 686.79 231.8H650.63L645.89 236.95ZM719.19 290.1V334.75L688.17 334.16L656.95 333.57L656.36 289.51L655.96 245.65H687.57H719.18V290.1H719.19Z" fill="black"/>
<path d="M775.5 236.75L770.56 241.49V290.09V338.71L775.5 343.45C780.24 348.39 780.64 348.39 816.99 348.39C853.34 348.39 853.74 348.39 858.48 343.45L863.42 338.71V290.1V241.5L858.48 236.76C853.74 231.82 853.34 231.82 816.99 231.82C780.64 231.82 780.25 231.81 775.5 236.75ZM848.61 290.1V333.57H817H785.39L784.8 292.08C784.6 269.36 784.8 249.6 785.39 248.22C785.98 246.05 793.29 245.65 817.4 246.05L848.62 246.64V290.1H848.61Z" fill="black"/>
<path d="M646.68 392.65L641.15 397.39V446.19V494.99L646.68 499.73C652.21 504.28 653 504.47 688.17 504.47C713.26 504.27 725.12 503.68 727.29 501.9C734.41 496.57 735 491.43 735 445.19V399.35L729.27 393.62L723.54 387.9H687.78C653 387.9 652.02 388.1 646.68 392.65ZM719.19 446.19V490.65H687.58H655.97V447.58C655.97 423.87 656.56 403.72 657.35 403.12C657.94 402.33 672.17 401.74 688.96 401.74H719.19V446.19Z" fill="black"/>
<path d="M775.5 392.84L770.56 397.58V446.18V494.78L775.5 499.52C780.24 504.46 780.64 504.46 816.99 504.46C853.34 504.46 853.74 504.46 858.48 499.52L863.42 494.78V446.18V397.58L858.48 392.84C853.75 387.9 853.35 387.9 817 387.9C780.65 387.9 780.25 387.9 775.5 392.84ZM848.61 446.19V489.66H817H785.39L784.8 448.17C784.6 425.45 784.8 405.69 785.39 404.31C785.98 402.14 793.29 401.74 817.4 402.14L848.62 402.73V446.19H848.61Z" fill="black"/>
<path d="M647.08 548.74C640.56 555.46 639.77 561.58 640.56 608.61C641.15 649.71 641.15 650.5 645.9 655.44L650.64 660.58H686.8C706.56 660.58 724.34 659.99 726.12 659.39C733.83 656.43 735.01 648.92 735.01 601.3V555.46L729.28 549.73L723.55 544H687.59C652.61 543.99 651.82 543.99 647.08 548.74ZM718.8 602.67L719.2 646.73H687.59H655.98V603.66C655.98 579.95 656.57 559.99 657.16 559.4C657.75 558.81 671.78 558.41 688.18 558.61L718.21 558.81L718.8 602.67Z" fill="black"/>
<path d="M779.46 546.36C770.77 551.1 770.57 552.48 770.57 602.47C770.57 647.72 770.77 650.48 774.72 655.42L778.67 660.56H817H855.33L859.28 655.42C863.23 650.48 863.43 647.71 863.43 602.47C863.23 552.48 863.03 551.1 854.14 546.36C848.41 543.2 784.99 543.2 779.46 546.36ZM836.36 559.01L849.6 560.2L849.2 603.08L848.61 645.76H817H785.39L784.8 604.27C784.6 581.55 784.6 561.99 785.2 560.8C785.98 558.22 816.4 557.23 836.36 559.01Z" fill="black"/>
</svg>
