<svg width="23" height="23" viewBox="0 0 23 23" fill="none" xmlns="http://www.w3.org/2000/svg">
<path d="M1.77181 0.841553H8.07525C9.05385 0.841553 9.84706 1.63476 9.84706 2.61337V8.9168C9.84706 9.89541 9.05385 10.6886 8.07525 10.6886H1.77181C0.79321 10.6886 0 9.89541 0 8.9168V2.61571C0 1.63711 0.79321 0.841553 1.77181 0.841553Z" fill="#B99503"/>
<path d="M12.8509 1.63013L19.1544 0.0554463C20.133 -0.190965 21.1233 0.407462 21.3697 1.38372L22.9444 7.68481C23.1908 8.66341 22.5947 9.65375 21.6161 9.90017L15.3127 11.4749C14.3341 11.7213 13.3438 11.1228 13.0974 10.1466L11.5227 3.84549C11.2739 2.86688 11.8723 1.87654 12.8509 1.63013Z" fill="#B99503"/>
<path d="M1.77181 13.1504H8.07525C9.05385 13.1504 9.84706 13.9436 9.84706 14.9222V21.2233C9.84706 22.2019 9.05385 22.9975 8.07525 22.9975H1.77181C0.79321 22.9975 0 22.2042 0 21.2233V14.9222C0 13.9436 0.79321 13.1504 1.77181 13.1504Z" fill="#B99503"/>
<path d="M14.0807 13.1504H20.3841C21.3627 13.1504 22.1559 13.9436 22.1559 14.9222V21.2233C22.1559 22.2019 21.3627 22.9975 20.3841 22.9975H14.0807C13.102 22.9975 12.3088 22.2042 12.3088 21.2233V14.9222C12.3088 13.9436 13.102 13.1504 14.0807 13.1504Z" fill="#B99503"/>
</svg>
