<svg width="41" height="41" viewBox="0 0 41 41" fill="none" xmlns="http://www.w3.org/2000/svg">
<g opacity="0.46">
<path d="M20.5 5.125C11.9583 5.125 5.125 11.9583 5.125 20.5C5.125 29.0417 11.9583 35.875 20.5 35.875C29.0417 35.875 35.875 29.0417 35.875 20.5C35.875 11.9583 29.0417 5.125 20.5 5.125ZM20.5 32.4583C13.8375 32.4583 8.54167 27.1625 8.54167 20.5C8.54167 13.8375 13.8375 8.54167 20.5 8.54167C27.1625 8.54167 32.4583 13.8375 32.4583 20.5C32.4583 27.1625 27.1625 32.4583 20.5 32.4583ZM35.0208 35.0208C38.7792 31.2625 41 26.1375 41 20.5C41 14.8625 38.7792 9.7375 35.0208 5.97917L33.1417 7.85833C36.3875 11.1042 38.4375 15.5458 38.4375 20.5C38.4375 25.4542 36.3875 29.8958 33.1417 33.1417L35.0208 35.0208ZM7.85833 33.1417C4.6125 29.8958 2.5625 25.4542 2.5625 20.5C2.5625 15.5458 4.6125 11.1042 7.85833 7.85833L5.97917 5.97917C2.22083 9.7375 0 14.8625 0 20.5C0 26.1375 2.22083 31.2625 5.97917 35.0208L7.85833 33.1417ZM16.2292 11.9583V29.0417H19.6458V22.2083H23.0625C23.9687 22.2083 24.8377 21.8484 25.4784 21.2076C26.1192 20.5669 26.4792 19.6978 26.4792 18.7917V15.375C26.4792 14.4688 26.1192 13.5998 25.4784 12.9591C24.8377 12.3183 23.9687 11.9583 23.0625 11.9583H16.2292ZM19.6458 15.375H23.0625V18.7917H19.6458V15.375Z" fill="#282828"/>
</g>
</svg>
