<svg width="14" height="14" viewBox="0 0 14 14" fill="none" xmlns="http://www.w3.org/2000/svg">
    <g clip-path="url(#clip0_104_616)">
        <path
            d="M13.86 7.4662C13.8572 7.6244 13.8558 7.7616 13.8558 7.8666C13.8558 11.1706 10.7842 13.8586 7.00842 13.8586C3.23262 13.8586 0.161019 11.1706 0.161019 7.8666C0.161019 7.8666 0.141419 5.6966 0.141419 6.3364C0.140019 2.9358 3.22002 0.141399 7.00282 0.141399C10.6386 0.141399 13.6136 2.6978 13.8418 5.915C13.8474 6.3882 13.8572 6.6458 13.86 7.4662ZM6.99862 12.9738C9.59282 12.9738 11.8174 11.7124 12.698 9.744C11.4646 11.3918 9.36882 12.5314 6.99862 12.5314C4.64522 12.5314 2.57042 11.4058 1.33422 9.7776C2.22462 11.7306 4.41982 12.9738 6.99862 12.9738ZM12.9724 6.3364C12.9486 3.3628 10.3544 1.0262 6.99862 1.0262C3.62742 1.0262 1.02482 3.3446 1.02482 6.3364C1.02482 9.3282 3.62742 11.6466 6.99862 11.6466C10.3656 11.6466 12.9654 9.3226 12.9724 6.3364C12.9724 6.3196 12.9724 6.3546 12.9724 6.3364ZM8.93062 7.7518C8.93062 8.4336 8.61142 9.072 7.66222 9.2134V9.877H7.21982H6.77742V9.2134C6.04522 9.1574 5.53842 8.8536 5.16182 8.4644L5.63082 7.8218C5.89402 8.1116 6.26502 8.2502 6.77742 8.3272V7C6.04522 6.8166 5.31862 6.6416 5.31862 5.7246C5.31862 5.005 5.86042 4.4226 6.77742 4.3456V3.682H7.44102H7.66222V4.3456C8.16622 4.431 8.48262 4.6858 8.81722 5.005L8.34822 5.6196C8.12002 5.3928 7.95342 5.3158 7.66222 5.2318V6.3378C8.35382 6.5282 8.93062 6.874 8.93062 7.7518ZM7.66222 8.3286C8.03602 8.2236 8.07802 8.0724 8.07802 7.8302C8.07802 7.5572 7.97162 7.336 7.66222 7.2226V8.3286ZM6.77742 5.0092C6.37982 5.0582 6.17122 5.3508 6.17122 5.6616C6.17122 5.9374 6.39942 6.0032 6.77742 6.1152V5.0092ZM7.03642 2.443C4.59902 2.499 2.54662 4.2644 2.45562 6.3756C2.45282 6.44 2.45702 6.503 2.46122 6.566C2.47242 6.7704 2.31422 6.9454 2.10842 6.9566C2.10142 6.9566 2.09442 6.9566 2.08742 6.9566C1.89002 6.9566 1.72482 6.804 1.71502 6.6052C1.71082 6.5282 1.70942 6.4512 1.70942 6.3742C1.70942 3.7968 4.09922 1.6996 7.03782 1.6996C7.24362 1.6996 7.41162 1.8662 7.41162 2.0706C7.41022 2.2764 7.24362 2.4374 7.03642 2.443Z"
            fill="#B99503" />
    </g>
    <defs>
        <clipPath id="clip0_104_616">
            <rect width="14" height="14" fill="white" />
        </clipPath>
    </defs>
</svg>
