<svg width="19" height="19" viewBox="0 0 19 19" fill="none" xmlns="http://www.w3.org/2000/svg">
<g clip-path="url(#clip0_220_681)">
<path d="M17.6989 2.70314C17.6716 2.5452 17.5513 2.41893 17.3945 2.3841C17.3415 2.37262 12.0583 1.19343 9.67259 0.0395759C9.56374 -0.0130699 9.43668 -0.0130699 9.32782 0.0395759C6.94174 1.19343 1.65855 2.37262 1.60551 2.3841C1.44876 2.41893 1.32843 2.5452 1.30111 2.70314C1.29597 2.73204 0.852635 5.84527 1.75711 9.54195C2.85674 14.0343 5.47953 17.2932 9.34247 18.9675C9.39274 18.9893 9.44617 19 9.50001 19C9.55384 19 9.60728 18.9893 9.65715 18.9675C13.5201 17.2936 16.1429 14.0343 17.2425 9.54195C18.1474 5.84527 17.704 2.73204 17.6989 2.70314ZM16.4734 9.35393C15.4355 13.5953 13.0894 16.5609 9.50001 18.1715C5.91059 16.5609 3.56449 13.5949 2.52661 9.35393C1.81728 6.45643 1.97601 3.89341 2.0528 3.09501C3.16351 2.83931 7.27661 1.85685 9.50001 0.833222C11.7234 1.85685 15.8365 2.83891 16.9472 3.09462C17.024 3.89341 17.1827 6.45643 16.4734 9.35393Z" fill="#282828"/>
<path d="M15.5301 3.97613C14.7151 3.77425 13.9214 3.56407 13.1705 3.35111C12.9592 3.29015 12.7411 3.41325 12.6817 3.62344C12.6223 3.83403 12.7438 4.05292 12.954 4.1123C13.6222 4.3019 14.3232 4.48913 15.0424 4.67003C15.0436 5.33819 15.0076 6.01467 14.9348 6.68601C14.911 6.90332 15.0682 7.09886 15.2855 7.12261C15.3001 7.12419 15.3144 7.12498 15.329 7.12498C15.5285 7.12498 15.7003 6.97457 15.7221 6.7719C15.81 5.96598 15.8464 5.15215 15.8309 4.35257C15.8274 4.17365 15.7043 4.01888 15.5301 3.97613Z" fill="#282828"/>
<path d="M11.677 7.52083H7.32288C6.66817 7.52083 6.13538 8.05362 6.13538 8.70833V11.875C6.13538 12.5297 6.66817 13.0625 7.32288 13.0625H11.677C12.3318 13.0625 12.8645 12.5297 12.8645 11.875V8.70833C12.8645 8.05362 12.3318 7.52083 11.677 7.52083ZM12.0729 11.875C12.0729 12.0935 11.8955 12.2708 11.677 12.2708H7.32288C7.10438 12.2708 6.92704 12.0935 6.92704 11.875V8.70833C6.92704 8.48983 7.10438 8.3125 7.32288 8.3125H11.677C11.8955 8.3125 12.0729 8.48983 12.0729 8.70833V11.875Z" fill="#282828"/>
<path d="M7.52083 7.12499C7.73973 7.12499 7.91667 6.94805 7.91667 6.72916C7.91667 5.85595 8.62679 5.14582 9.5 5.14582C10.3732 5.14582 11.0833 5.85595 11.0833 6.72916C11.0833 6.94805 11.2603 7.12499 11.4792 7.12499C11.6981 7.12499 11.875 6.94805 11.875 6.72916C11.875 5.41934 10.8098 4.35416 9.5 4.35416C8.19019 4.35416 7.125 5.41934 7.125 6.72916C7.125 6.94805 7.30194 7.12499 7.52083 7.12499Z" fill="#282828"/>
</g>
<defs>
<clipPath id="clip0_220_681">
<rect width="19" height="19" fill="white"/>
</clipPath>
</defs>
</svg>
