<svg width="13" height="14" viewBox="0 0 13 14" fill="none" xmlns="http://www.w3.org/2000/svg">
    <path
        d="M11.8668 5.88894L6.98484 1.23715C6.84909 1.10787 6.67726 1.03696 6.4997 1.03696C6.32215 1.03696 6.15031 1.10787 6.01457 1.23715L1.13348 5.88894C1.07458 5.94516 1.03238 6.02046 1.0126 6.10466C0.992815 6.18886 0.9964 6.27788 1.02287 6.3597C1.04934 6.44152 1.09741 6.51218 1.16059 6.56213C1.22377 6.61208 1.29901 6.63891 1.37612 6.63899H2.66754V12.5003C2.66754 12.5894 2.69886 12.6748 2.75463 12.7378C2.81039 12.8008 2.88603 12.8362 2.96489 12.8362H5.43175V10.7507C5.42598 10.4331 5.52717 10.125 5.71485 9.88855C5.90254 9.6521 6.16271 9.50498 6.44276 9.47695C6.58771 9.46819 6.73271 9.49288 6.86894 9.54951C7.00516 9.60613 7.12974 9.69351 7.23508 9.80632C7.34043 9.91912 7.42432 10.055 7.48166 10.2056C7.53899 10.3563 7.56855 10.5185 7.56855 10.6825V12.8362H10.0354C10.1143 12.8362 10.1899 12.8008 10.2457 12.7378C10.3014 12.6748 10.3328 12.5894 10.3328 12.5003V6.63899H11.6239C11.701 6.63891 11.7762 6.61208 11.8394 6.56213C11.9026 6.51218 11.9507 6.44152 11.9771 6.3597C12.0036 6.27788 12.0072 6.18886 11.9874 6.10466C11.9676 6.02046 11.9254 5.94516 11.8665 5.88894H11.8668Z"
        stroke="#B99503" stroke-linecap="round" stroke-linejoin="round" />
</svg>
