<svg width="17" height="17" viewBox="0 0 17 17" fill="none" xmlns="http://www.w3.org/2000/svg">
<path d="M15.8184 7.16816L9.16114 1.2545C8.97604 1.09015 8.74171 1 8.49959 1C8.25747 1 8.02315 1.09015 7.83805 1.2545L1.18202 7.16816C1.1017 7.23964 1.04416 7.33536 1.01718 7.4424C0.990202 7.54943 0.995091 7.66261 1.03118 7.76663C1.06728 7.87064 1.13283 7.96047 1.21899 8.02397C1.30514 8.08747 1.40774 8.12158 1.51289 8.12167H3.27391V15.573C3.27391 15.6862 3.31663 15.7949 3.39268 15.8749C3.46872 15.955 3.57186 16 3.6794 16H7.0433V13.3487C7.03543 12.9451 7.17341 12.5533 7.42935 12.2527C7.68528 11.9521 8.04006 11.7651 8.42194 11.7295C8.6196 11.7183 8.81734 11.7497 9.00309 11.8217C9.18885 11.8937 9.35874 12.0048 9.50239 12.1482C9.64604 12.2916 9.76044 12.4643 9.83862 12.6558C9.9168 12.8473 9.95712 13.0536 9.95711 13.262V16H13.321C13.4285 16 13.5317 15.955 13.6077 15.8749C13.6838 15.7949 13.7265 15.6862 13.7265 15.573V8.12167H15.4871C15.5923 8.12158 15.6949 8.08747 15.781 8.02397C15.8672 7.96047 15.9327 7.87064 15.9688 7.76663C16.0049 7.66261 16.0098 7.54943 15.9828 7.4424C15.9558 7.33536 15.8983 7.23964 15.818 7.16816H15.8184Z" stroke="#282828" stroke-linecap="round" stroke-linejoin="round"/>
</svg>
