<svg width="16" height="19" viewBox="0 0 16 19" fill="none" xmlns="http://www.w3.org/2000/svg">
<path d="M8 0C3.58887 0 0 3.58887 0 8C0 9.81375 0.619913 11.5889 1.74385 12.9998C2.45942 13.8956 3.37733 14.6406 4.40561 15.1538L8 18.0271L11.5999 15.1465C12.619 14.6332 13.5332 13.8919 14.2488 12.9998C15.3782 11.5889 16 9.81375 16 8C16 3.59071 12.4111 0 8 0ZM9.11474 14.1163L8 12.4442L6.88526 14.1163C4.34307 13.6565 2.34353 11.6551 1.88181 9.11474L3.55392 8L1.88181 6.88526C2.34353 4.34307 4.34307 2.34353 6.88526 1.88365L8 3.55576L9.11474 1.88365C11.6569 2.34353 13.6565 4.34491 14.1182 6.88526L12.4461 8L14.1182 9.11474C13.6565 11.6551 11.6551 13.6565 9.11474 14.1163Z" fill="#282828"/>
<path d="M10.6673 8C10.6673 9.47344 9.47345 10.6673 8.00001 10.6673C6.52657 10.6673 5.33273 9.47344 5.33273 8C5.33273 6.52656 6.52657 5.33272 8.00001 5.33272C9.47345 5.33272 10.6673 6.52656 10.6673 8Z" fill="#282828"/>
</svg>
