<svg width="20" height="20" viewBox="0 0 20 20" fill="none" xmlns="http://www.w3.org/2000/svg">
<g clip-path="url(#clip0_220_713)">
<path d="M19.4894 8.56796C19.2821 8.25485 18.9677 8.03909 18.6023 7.95731C18.838 7.50641 18.8284 6.94382 18.5281 6.49048C18.3145 6.16776 17.9922 5.95932 17.6414 5.88043C17.704 5.76111 17.7502 5.63232 17.7779 5.49652C17.8545 5.11887 17.7797 4.73404 17.5668 4.41284C17.3595 4.09958 17.0451 3.88382 16.6797 3.80219C16.9154 3.35129 16.9058 2.7887 16.6055 2.33521C16.1665 1.67221 15.2696 1.48987 14.6065 1.92902L13.1706 2.87994C12.4052 2.49176 11.5912 2.21634 10.7463 2.05948C10.4793 1.65405 10.1688 1.27716 9.82117 0.940247L9.22714 0.364533C8.79211 -0.0572195 8.10989 -0.120544 7.60483 0.214082C7.00729 0.609742 6.84311 1.41785 7.23877 2.01538C7.25433 2.03903 7.26959 2.06284 7.2847 2.08664C5.33752 2.48062 3.56293 3.51395 2.24945 5.02808C0.824127 6.6713 0.0390625 8.77579 0.0390625 10.9538C0.0390625 11.3713 0.0675964 11.7896 0.124054 12.1967C0.559082 15.3615 2.66724 18.0888 5.62561 19.3146C6.72272 19.7693 7.88681 20 9.08508 20C10.9828 20 12.7994 19.4188 14.3385 18.3194C15.8443 17.2437 16.9708 15.7591 17.5966 14.0263C17.655 13.8649 17.5713 13.6865 17.4098 13.6282C17.2482 13.5699 17.07 13.6536 17.0117 13.8152C16.429 15.4288 15.3796 16.8112 13.9769 17.8133C12.5439 18.837 10.8524 19.3781 9.08508 19.3781C8.17139 19.3781 7.2792 19.2339 6.42532 18.9494L8.95553 17.2739C8.95569 17.2737 8.95584 17.2737 8.95599 17.2736C8.95615 17.2736 8.95615 17.2734 8.9563 17.2733L11.0591 15.8807H11.0593C11.248 15.7556 11.377 15.5646 11.4221 15.3426C11.4673 15.1205 11.4233 14.8941 11.2982 14.7054L11.2704 14.6632L11.6789 14.3927C11.9704 14.1997 12.3209 14.124 12.666 14.1794C13.1657 14.2596 13.6732 14.1498 14.095 13.8704L17.4831 11.6267C17.4599 11.9206 17.4217 12.2128 17.3685 12.5002C17.337 12.6691 17.4486 12.8314 17.6175 12.8627C17.6366 12.8664 17.6558 12.868 17.6746 12.868C17.8215 12.868 17.9521 12.7634 17.9799 12.6137C18.0661 12.15 18.1157 11.675 18.1285 11.1993L19.0833 10.567C19.4044 10.3543 19.6237 10.0291 19.7003 9.65164C19.7771 9.27399 19.7021 8.88916 19.4894 8.56796ZM12.5668 3.27972L11.6167 3.909L11.4296 3.405C11.3515 3.19473 11.2619 2.98859 11.1627 2.78687C11.6447 2.90909 12.1141 3.07388 12.5668 3.27972ZM2.71927 5.43564C3.98163 3.98041 5.70114 3.00217 7.58224 2.66296C7.88406 3.39417 7.95639 4.21112 7.77603 4.98978L7.01782 8.26538C6.89865 8.13812 6.74393 8.05038 6.56967 8.01498C6.3475 7.96967 6.12122 8.01376 5.93246 8.13889L3.78479 9.561C3.78464 9.561 3.78464 9.561 3.78448 9.56116C3.78448 9.56116 3.78433 9.56116 3.78433 9.56131L0.686798 11.6125C0.669861 11.394 0.661011 11.1739 0.661011 10.9538C0.661011 8.92563 1.39206 6.96579 2.71927 5.43564ZM10.8127 15.2185C10.8006 15.2777 10.7661 15.3288 10.7156 15.3622H10.7158L8.86887 16.5852L5.44098 11.4731C5.34531 11.3304 5.15213 11.2924 5.00946 11.3881C4.86694 11.4838 4.8288 11.6768 4.92447 11.8195L8.35022 16.9287L5.71365 18.6748C3.09372 17.5288 1.21887 15.1088 0.768127 12.2928L3.86932 10.2458L4.22623 10.7784C4.28635 10.8678 4.38461 10.9161 4.48486 10.9161C4.54437 10.9161 4.60464 10.8992 4.65774 10.8635C4.80041 10.7678 4.83856 10.5746 4.74289 10.432L4.38843 9.90326L6.27594 8.65738C6.32614 8.62396 6.38641 8.61237 6.44562 8.62442C6.50482 8.63647 6.55594 8.67096 6.58935 8.72131L10.7797 15.0488C10.813 15.099 10.8247 15.1593 10.8127 15.2185ZM19.0909 9.52774C19.0472 9.74258 18.9226 9.92752 18.7398 10.0485L17.6483 10.7713C17.648 10.7715 17.6477 10.7718 17.6472 10.7719L13.7515 13.3519C13.4601 13.5449 13.1096 13.6208 12.7644 13.5652C12.2649 13.4851 11.7574 13.5948 11.3354 13.8742L10.927 14.1447L7.49496 8.9624L8.38211 5.13016C8.61053 4.14291 8.49014 3.10303 8.05496 2.19711C8.05099 2.18765 8.04672 2.1785 8.04184 2.1695C7.95822 1.99829 7.86331 1.83212 7.75726 1.67191C7.55096 1.36032 7.63657 0.939027 7.9483 0.732575C8.21167 0.558167 8.5675 0.591126 8.79425 0.811005L9.38827 1.38687C10.0308 2.00989 10.5351 2.78259 10.8464 3.62152L11.1699 4.49295C11.1705 4.49463 11.1711 4.496 11.1717 4.49753C11.1725 4.49951 11.1734 4.50165 11.1742 4.50363C11.1765 4.50897 11.1786 4.51386 11.1809 4.51798C11.1871 4.5311 11.194 4.54407 11.2022 4.55643C11.2971 4.69971 11.49 4.73892 11.6331 4.64401L14.95 2.44766C15.3271 2.19788 15.8372 2.30148 16.087 2.67868C16.3368 3.05588 16.2332 3.56598 15.856 3.81577L15.5681 4.0065C15.5681 4.0065 15.5679 4.0065 15.5678 4.00665L14.9255 4.43207C14.9246 4.43268 14.924 4.43329 14.9231 4.43375C14.9194 4.43634 14.9159 4.43878 14.913 4.44122C14.7803 4.53873 14.7459 4.72412 14.838 4.86298C14.9327 5.00626 15.1257 5.04547 15.269 4.95056L15.9117 4.52484C16.0944 4.40414 16.313 4.36157 16.5277 4.40521C16.7424 4.44885 16.9275 4.57352 17.0483 4.75632C17.1693 4.93897 17.2121 5.15793 17.1684 5.37262C17.1248 5.58746 17.0001 5.7724 16.8173 5.8934L15.8868 6.50971C15.7436 6.60446 15.7043 6.79733 15.7993 6.94061C15.8591 7.03095 15.9579 7.07993 16.0588 7.07993C16.1177 7.07993 16.1774 7.06314 16.2302 7.0282L16.3742 6.93283L16.8726 6.60278C17.2499 6.353 17.7599 6.4566 18.0096 6.8338C18.2594 7.21115 18.1558 7.7211 17.7786 7.97104L17.3138 8.27881C17.3114 8.28033 17.309 8.28201 17.3065 8.28369L16.8481 8.58719C16.7049 8.68195 16.6656 8.87497 16.7606 9.01825C16.8204 9.10858 16.9192 9.15756 17.0201 9.15756C17.079 9.15756 17.1387 9.14078 17.1915 9.10583L17.3355 9.01047C17.3355 9.01047 17.3355 9.01031 17.3357 9.01031L17.834 8.68042C18.0167 8.55942 18.2355 8.51669 18.4503 8.56049C18.6652 8.60397 18.8501 8.72879 18.9711 8.91144C19.0919 9.09409 19.1345 9.31305 19.0909 9.52774Z" fill="#282828"/>
</g>
<defs>
<clipPath id="clip0_220_713">
<rect width="20" height="20" fill="white"/>
</clipPath>
</defs>
</svg>
