<svg width="27" height="35" viewBox="0 0 27 35" fill="none" xmlns="http://www.w3.org/2000/svg">
<g filter="url(#filter0_d_1285_1543)">
<path d="M11.6207 2.04122L11.5505 2.23562L13.3001 19.2051V19.5804H13.9535L13.9454 19.2996L15.7247 2.22752V2.04122C15.7247 1.53362 15.5492 1.53902 15.5384 1.01252C15.0578 0.758719 14.8364 0.27002 14.3288 0.27002H13.3028C12.3902 0.27002 11.6207 1.06382 11.6207 2.04122Z" fill="#B99503"/>
<path d="M13.7942 26.7273C14.6015 26.7273 15.5681 25.5393 15.5681 24.4863V24.3C15.5681 23.2065 14.669 22.5288 13.5161 22.5288C12.2174 22.5288 11.2751 23.3037 11.2751 24.5808V24.6753C11.2751 25.5447 12.1499 26.73 12.9545 26.73H13.7942V26.7273Z" fill="#B99503"/>
</g>
<defs>
<filter id="filter0_d_1285_1543" x="-4" y="0" width="35" height="35" filterUnits="userSpaceOnUse" color-interpolation-filters="sRGB">
<feFlood flood-opacity="0" result="BackgroundImageFix"/>
<feColorMatrix in="SourceAlpha" type="matrix" values="0 0 0 0 0 0 0 0 0 0 0 0 0 0 0 0 0 0 127 0" result="hardAlpha"/>
<feOffset dy="4"/>
<feGaussianBlur stdDeviation="2"/>
<feComposite in2="hardAlpha" operator="out"/>
<feColorMatrix type="matrix" values="0 0 0 0 0 0 0 0 0 0 0 0 0 0 0 0 0 0 0.25 0"/>
<feBlend mode="normal" in2="BackgroundImageFix" result="effect1_dropShadow_1285_1543"/>
<feBlend mode="normal" in="SourceGraphic" in2="effect1_dropShadow_1285_1543" result="shape"/>
</filter>
</defs>
</svg>
