<svg width="16" height="16" viewBox="0 0 16 16" fill="none" xmlns="http://www.w3.org/2000/svg">
<g clip-path="url(#clip0_220_719)">
<path d="M13 4.66666C11.7133 4.66666 10.6666 3.62 10.6666 2.33333C10.6666 1.04667 11.7133 0 13 0C14.2866 0 15.3333 1.04667 15.3333 2.33333C15.3333 3.62 14.2866 4.66666 13 4.66666ZM13 0.666666C12.0806 0.666666 11.3333 1.41467 11.3333 2.33333C11.3333 3.252 12.0806 4 13 4C13.9193 4 14.6666 3.252 14.6666 2.33333C14.6666 1.41467 13.9193 0.666666 13 0.666666Z" fill="#282828"/>
<path d="M13 16C11.7133 16 10.6666 14.9533 10.6666 13.6666C10.6666 12.38 11.7133 11.3333 13 11.3333C14.2866 11.3333 15.3333 12.38 15.3333 13.6666C15.3333 14.9533 14.2866 16 13 16ZM13 12C12.0806 12 11.3333 12.748 11.3333 13.6666C11.3333 14.5853 12.0806 15.3333 13 15.3333C13.9193 15.3333 14.6666 14.5853 14.6666 13.6666C14.6666 12.748 13.9193 12 13 12Z" fill="#282828"/>
<path d="M2.99996 10.3333C1.71329 10.3333 0.666626 9.28666 0.666626 7.99999C0.666626 6.71332 1.71329 5.66666 2.99996 5.66666C4.28663 5.66666 5.33329 6.71332 5.33329 7.99999C5.33329 9.28666 4.28663 10.3333 2.99996 10.3333ZM2.99996 6.33332C2.08063 6.33332 1.33329 7.08132 1.33329 7.99999C1.33329 8.91866 2.08063 9.66666 2.99996 9.66666C3.91929 9.66666 4.66663 8.91866 4.66663 7.99999C4.66663 7.08132 3.91929 6.33332 2.99996 6.33332Z" fill="#282828"/>
<path d="M11.2599 13.0133C11.2039 13.0133 11.1473 12.9993 11.0959 12.97L4.57661 9.27666C4.41661 9.18599 4.35995 8.98266 4.45128 8.82199C4.54195 8.66133 4.74661 8.60533 4.90528 8.69666L11.4246 12.39C11.5846 12.4807 11.6413 12.684 11.5499 12.8447C11.4879 12.9527 11.3753 13.0133 11.2599 13.0133Z" fill="#282828"/>
<path d="M4.73994 7.34666C4.62394 7.34666 4.51127 7.286 4.44994 7.178C4.3586 7.018 4.41527 6.81466 4.57527 6.72333L11.0946 3.03C11.2519 2.94 11.4579 2.99533 11.5486 3.15533C11.6399 3.31533 11.5833 3.51867 11.4233 3.61L4.90394 7.30333C4.8526 7.33266 4.79594 7.34666 4.73994 7.34666Z" fill="#282828"/>
</g>
<defs>
<clipPath id="clip0_220_719">
<rect width="16" height="16" fill="white"/>
</clipPath>
</defs>
</svg>
