<svg width="980" height="786" viewBox="0 0 980 786" fill="none" xmlns="http://www.w3.org/2000/svg">
<path d="M112.08 3.67004C109.22 5.51007 105.54 9.40002 104.1 12.26C102.87 15.1201 78.74 67.69 50.92 129.05L0 240.51V254.83C0 284.08 12.07 312.51 34.16 334.39C48.06 348.51 71.18 362 88.56 366.3L98.17 368.76V565.52C98.17 697.24 98.99 764.73 100.42 769.85C101.85 775.17 104.72 778.85 109.01 781.71C115.35 785.6 121.9 785.6 493.53 785.19L871.71 784.58L877.64 777.83L883.57 771.29V570.03V368.96L898.09 364.26C923.45 356.08 944.93 339.92 960.06 317.63C977.85 291.45 983.99 261.59 977.44 230.91C976.01 224.37 955.35 180.19 925.49 119.65C898.29 64.63 875.38 17.59 874.56 15.1301C873.95 12.8801 870.88 8.79004 868.02 6.13007L862.7 1.22003L490.25 0.810059C145.83 0.400024 117.2 0.600037 112.08 3.67004ZM884.59 133.54C909.34 183.45 931.22 228.24 933.06 233.35C937.97 246.85 937.76 269.35 932.24 283.87C926.31 299.82 911.17 314.96 894.81 321.3C878.24 327.64 852.68 327.84 836.32 321.5C820.98 315.57 807.48 303.5 800.53 289.18C795.82 279.98 794.6 274.05 793.78 256.86C792.76 238.25 791.94 235.18 787.65 230.48C777.02 219.23 757.38 222.3 751.45 236.41C749.81 240.3 748.59 249.91 748.59 258.29C748.59 277.52 743.89 290.61 732.43 303.29C705.64 333.15 653.48 334.58 625.26 306.36C612.78 293.88 607.06 278.95 605.62 255.64C604.6 238.25 603.78 234.98 599.48 230.48C592.94 223.53 583.12 221.89 574.12 226.19C564.71 230.69 562.87 235.19 561.85 257.07C561.24 271.39 559.81 278.34 555.72 287.14C542.83 315.57 510.31 331.32 476.77 325.39C459.18 322.32 446.29 315.37 435.05 302.89C423.81 290.41 419.3 278.14 419.3 260.14C419.3 241.12 416.23 231.91 408.46 227.01C399.87 221.49 387.8 222.92 380.64 230.08C375.94 234.99 375.12 237.44 374.09 255.85C373.07 273.24 371.84 278.14 366.32 289.6C354.25 313.94 332.37 326.42 301.69 326.21C279.4 326 264.47 320.07 250.35 306.17C236.85 292.47 231.12 277.94 231.12 256.67C231.12 239.08 227.85 230.9 218.85 226.2C210.87 222.11 204.74 222.31 196.76 227.22C188.17 232.54 186.12 238.26 186.12 256.88C186.12 286.95 170.37 311.29 144.19 321.31C127.01 327.85 102.06 327.85 85.08 321.31C61.76 312.31 45.2 289.61 43.56 264.04L42.54 250.75L85.9 155.63C109.83 103.27 131.1 56.6401 133.15 51.73L136.83 43.14H488.42H839.8L884.59 133.54ZM217.42 330.3C221.51 335.21 231.53 343.8 239.92 349.32C286.35 380.41 339.53 375.09 381.46 335.41L396.8 320.89L406 331.12C432.18 360.16 473.29 374.69 508.67 367.53C531.99 362.82 552.44 351.99 569.62 335.21L583.73 321.3L596.21 333.37C620.14 357.1 647.55 369.16 677 369.16C708.09 369.16 734.06 358.12 757.59 335L771.7 321.3L783.77 333.57C797.27 347.07 813.84 357.91 829.99 363.43L840.62 367.32V554.88V742.64H796.65H752.68V607.44V472.25L745.72 465.29L738.77 458.34H611.54H484.33L477.38 465.29L470.43 472.25V607.44V742.64L306.4 742.23L142.16 741.62L141.95 554.88C141.95 424.39 142.56 367.74 144 366.51C145.23 365.69 151.16 363.03 157.29 360.58C171.4 354.85 192.47 339.72 200.86 329.49C204.34 324.99 207.81 321.31 208.63 321.31C209.23 321.3 213.12 325.39 217.42 330.3ZM709.72 621.96V742.63H611.55H513.38V621.96V501.29H611.55H709.72V621.96Z" fill="black"/>
</svg>
