<svg width="40" height="40" viewBox="0 0 40 40" fill="none" xmlns="http://www.w3.org/2000/svg">
<g clip-path="url(#clip0_344_2880)">
<path fill-rule="evenodd" clip-rule="evenodd" d="M30 40H10C7.34787 39.9999 4.8044 38.9463 2.92906 37.0709C1.05372 35.1956 0.000116023 32.6521 0 30L0 10C0.000116023 7.34787 1.05372 4.8044 2.92906 2.92906C4.8044 1.05372 7.34787 0.000116023 10 0L30 0C32.6522 0 35.1957 1.05357 37.0711 2.92893C38.9464 4.8043 40 7.34784 40 10V30C40 32.6522 38.9464 35.1957 37.0711 37.0711C35.1957 38.9464 32.6522 40 30 40Z" fill="#FFD514"/>
<path fill-rule="evenodd" clip-rule="evenodd" d="M18.75 11.25H30C31.442 11.2499 32.829 10.696 33.8744 9.70276C34.9198 8.70948 35.5439 7.35266 35.6177 5.9125C35.6915 4.47235 35.2094 3.05885 34.271 1.96391C33.3325 0.868981 32.0095 0.176239 30.575 0.02875C30.3837 0.018125 30.1944 0 30 0H10C7.34787 0.000116023 4.8044 1.05372 2.92906 2.92906C1.05372 4.8044 0.000116023 7.34787 0 10L0 30C0.000116027 25.0272 1.97559 20.2582 5.49188 16.7419C9.00816 13.2256 13.7772 11.2501 18.75 11.25Z" fill="#FFFA00"/>
<path fill-rule="evenodd" clip-rule="evenodd" d="M30 20C28.0222 20 26.0888 20.5865 24.4443 21.6853C22.7998 22.7841 21.5181 24.3459 20.7612 26.1732C20.0043 28.0004 19.8063 30.0111 20.1922 31.9509C20.578 33.8907 21.5304 35.6725 22.9289 37.0711C24.3275 38.4696 26.1093 39.422 28.0491 39.8079C29.9889 40.1937 31.9996 39.9957 33.8268 39.2388C35.6541 38.4819 37.2159 37.2002 38.3147 35.5557C39.4135 33.9112 40 31.9778 40 30V10C40 12.6522 38.9464 15.1957 37.0711 17.0711C35.1957 18.9464 32.6522 20 30 20Z" fill="#FFAF28"/>
<path d="M20.0001 33.4369C18.4568 33.4422 16.9497 32.9697 15.6855 32.0844C15.3284 31.8431 14.9454 31.6426 14.5435 31.4868C13.8268 31.269 13.082 31.1577 12.3329 31.1563C11.723 31.1986 11.1142 31.0604 10.5824 30.759C10.3638 30.595 10.1833 30.3858 10.0531 30.1456C9.92285 29.9054 9.84608 29.64 9.82799 29.3674C9.71505 29.3289 9.57224 29.2907 9.40992 29.2477C8.74206 29.0878 8.09793 28.8414 7.49386 28.5147C7.17956 28.3854 6.91007 28.1668 6.71871 27.8859C6.52736 27.6051 6.42254 27.2743 6.41724 26.9345C6.43305 26.6172 6.54154 26.3116 6.72927 26.0554C6.91701 25.7991 7.17575 25.6036 7.47349 25.4929C10.7694 23.8996 11.6196 21.6171 11.7922 21.0101C11.4974 20.8014 10.9695 20.4596 10.6832 20.2741C10.4128 20.0991 10.179 19.9475 10.0515 19.8584C8.50305 18.779 8.66399 17.5857 8.8973 16.9705C9.05345 16.5653 9.33352 16.2197 9.6976 15.983C10.0617 15.7462 10.4912 15.6305 10.9249 15.6522C11.1309 15.6524 11.3363 15.6749 11.5374 15.7193C11.7327 15.7617 11.9219 15.8151 12.1026 15.8728C12.0695 15.0795 12.0838 14.285 12.1453 13.4934C12.5036 9.34962 15.6603 6.56312 19.9993 6.56006C24.3403 6.56312 27.4964 9.34999 27.8541 13.4937C27.9159 14.2853 27.9303 15.0799 27.8974 15.8732C28.0781 15.8149 28.2692 15.7612 28.4662 15.7185C28.6661 15.6747 28.8701 15.6525 29.0747 15.6523C29.5084 15.6308 29.9379 15.7467 30.3019 15.9835C30.666 16.2203 30.9461 16.5659 31.1023 16.9711C31.3354 17.5869 31.4954 18.7799 29.9481 19.8586C29.8205 19.9477 29.5868 20.0994 29.3164 20.2742C29.0307 20.4595 28.5046 20.8004 28.2068 21.0109C28.3795 21.6161 29.2304 23.9 32.5238 25.4922C32.8221 25.6027 33.0813 25.7983 33.2694 26.0548C33.4576 26.3113 33.5663 26.6174 33.5821 26.935C33.5769 27.2746 33.4723 27.6051 33.2811 27.8858C33.09 28.1664 32.8207 28.3849 32.5067 28.514C31.9024 28.8414 31.2579 29.0881 30.5896 29.248C30.4271 29.2913 30.2844 29.3292 30.1715 29.3679C30.1531 29.641 30.0758 29.9069 29.9451 30.1473C29.8144 30.3878 29.6332 30.5971 29.414 30.761C28.883 31.0615 28.2753 31.199 27.6666 31.1565C26.9177 31.1579 26.173 31.2693 25.4565 31.4874C25.0545 31.6431 24.6712 31.8435 24.3139 32.0849C23.05 32.9699 21.5431 33.4422 20.0001 33.4369Z" fill="#B47800"/>
<path d="M31.9032 27.4194C30.7088 28.0769 29.9151 28.0056 29.2988 28.4044C28.7745 28.7425 29.0826 29.4706 28.7038 29.7325C28.2376 30.0568 26.8513 29.7106 25.0651 30.3C23.5707 30.7931 22.6576 32.1862 20.0001 32.1868C17.3426 32.1862 16.4288 30.7931 14.9351 30.3C13.1482 29.7106 11.7626 30.0568 11.2957 29.7325C10.917 29.4706 11.2251 28.7425 10.7013 28.4044C10.0851 28.0056 9.29133 28.0769 8.09633 27.4194C7.33571 26.9994 7.76633 26.7406 8.02008 26.6175C12.3463 24.5256 13.0338 21.2906 13.0663 21.0475C13.1112 20.903 13.1124 20.7485 13.0697 20.6034C13.027 20.4583 12.9423 20.329 12.8263 20.2319C12.5182 19.9456 11.1463 19.0975 10.767 18.8331C10.137 18.3937 9.86133 17.9544 10.0663 17.4144C10.1747 17.2025 10.3566 17.0374 10.578 16.9501C10.7994 16.8627 11.045 16.8591 11.2688 16.94C11.9588 17.09 12.6301 17.4362 13.017 17.5287C13.4651 17.6406 13.4282 17.2856 13.4238 17.2075C13.3266 16.0077 13.3156 14.8026 13.3907 13.6012C13.7107 9.89999 16.5838 7.8125 20.0001 7.81C23.4157 7.8125 26.2888 9.89999 26.6088 13.6012C26.6841 14.8026 26.6733 16.0077 26.5763 17.2075C26.572 17.2856 26.5345 17.6406 26.9826 17.5287C27.3701 17.4362 28.0407 17.09 28.7313 16.94C28.9552 16.8592 29.2008 16.8628 29.4221 16.9501C29.6435 17.0375 29.8254 17.2025 29.9338 17.4144C30.1382 17.9544 29.8632 18.3937 29.2332 18.8331C28.8538 19.0975 27.482 19.9456 27.1738 20.2319C27.0577 20.3289 26.9728 20.4581 26.93 20.6032C26.8872 20.7484 26.8883 20.903 26.9332 21.0475C26.9663 21.2906 27.6538 24.5256 31.9795 26.6175C32.2332 26.7406 32.6645 26.9994 31.9032 27.4194Z" fill="white"/>
</g>
<defs>
<clipPath id="clip0_344_2880">
<rect width="40" height="40" fill="white"/>
</clipPath>
</defs>
</svg>
