<svg width="27" height="24" viewBox="0 0 27 24" fill="none" xmlns="http://www.w3.org/2000/svg">
    <path
        d="M12.0312 3.99199C8.82924 7.19395 8.03026 8.02131 7.95698 8.21251C7.77128 8.6963 7.96827 9.21426 8.43526 9.48977C8.64905 9.61347 9.13312 9.63055 9.34113 9.52365C9.41993 9.48977 11.0069 7.93121 12.8751 6.0685L16.2627 2.68636L19.6559 6.0685C21.5186 7.93121 23.1055 9.48977 23.1843 9.52365C23.3758 9.62504 23.8596 9.61374 24.0679 9.50685C24.5801 9.24236 24.7826 8.58389 24.5068 8.06621C24.4674 7.98742 22.6498 6.14179 20.4719 3.96389L16.5162 0.0136516H16.263H16.0098L12.0312 3.99199Z"
        fill="#B99503" />
    <path
        d="M13.151 6.64264L10.0728 9.72062V10.0132V10.3058L10.3992 10.3397C11.7553 10.4973 13.2918 11.0263 14.3553 11.696C14.5522 11.8197 14.631 11.831 15.2724 11.831C16.0885 11.831 16.1502 11.8591 16.1502 12.2586C16.1502 12.4669 16.167 12.5063 16.2626 12.5063C16.3582 12.5063 16.3753 12.4669 16.3753 12.2757C16.3753 11.831 16.3753 11.831 17.4164 11.831C18.0917 11.831 18.3507 11.8478 18.3843 11.8985C18.4069 11.9379 18.4405 12.1462 18.4573 12.36L18.4854 12.7482L19.2169 12.8832C20.4324 13.1025 21.7436 13.5921 22.2219 14.0086L22.4527 14.2056V11.9883V9.77683L19.3409 6.66496L16.2345 3.55888L13.151 6.64264ZM16.0378 9.58012C16.1392 9.6815 16.1505 9.76581 16.1505 10.5144C16.1505 10.9701 16.1224 11.3808 16.0943 11.4428C16.0381 11.5442 15.9648 11.5497 15.1209 11.5497C14.4792 11.5497 14.1811 11.5271 14.1362 11.4822C14.0913 11.4373 14.0687 11.1447 14.0687 10.5312C14.0687 9.40572 14.0067 9.46771 15.1212 9.46771C15.8521 9.46743 15.9364 9.47873 16.0378 9.58012ZM18.3336 9.55752C18.4518 9.63632 18.4573 9.67572 18.4573 10.486C18.4573 10.9643 18.4292 11.3808 18.4011 11.4426C18.3449 11.5439 18.2716 11.5495 17.4164 11.5495C16.5613 11.5495 16.488 11.5439 16.4318 11.4426C16.4037 11.3806 16.3756 10.9643 16.3756 10.486C16.3756 9.41674 16.3194 9.46743 17.4167 9.46743C18.041 9.46743 18.2322 9.48424 18.3336 9.55752Z"
        fill="#B99503" />
    <path
        d="M0.979157 10.5816C0.889066 10.6659 0.821566 10.88 0.709159 11.4594C0.29259 13.6205 0.00551017 16.9406 0 19.5797C0 20.39 0.0449079 20.6264 0.21958 20.6994C0.270274 20.722 0.900362 20.7614 1.61503 20.795C2.81928 20.8512 2.93169 20.8457 3.02756 20.7614C3.12316 20.6713 3.13997 20.5363 3.16835 19.1577C3.21326 17.25 3.46672 14.6671 3.8888 11.7859C4.01829 10.8687 4.01829 10.8406 3.8888 10.7111C3.8045 10.6268 3.66371 10.6042 3.00525 10.5703C2.57187 10.5535 1.96989 10.5196 1.66021 10.5028C1.14804 10.4747 1.08605 10.4805 0.979157 10.5816Z"
        fill="#B99503" />
    <path
        d="M8.12595 11.2401C7.45619 11.3415 6.52773 11.5721 5.85824 11.8027C5.0477 12.0842 4.89589 12.1572 4.83969 12.298C4.78899 12.4104 4.2771 18.4262 4.2771 18.8763C4.2771 18.9945 4.3165 19.1069 4.37849 19.1634C4.43469 19.2141 4.74987 19.2984 5.12126 19.3604C6.02713 19.518 6.14532 19.5742 9.39798 21.4256C12.144 22.99 13.2413 23.5696 13.9899 23.8509C14.6539 24.0986 15.5432 24.0253 18.4297 23.474C19.2345 23.3222 20.2078 23.1475 20.5963 23.0858C22.3295 22.8045 22.1325 22.9114 24.541 21.0319C25.6891 20.1316 26.5161 19.3381 26.7076 18.9441C26.8878 18.5727 26.9101 18.1394 26.7638 17.8636C26.6682 17.6834 26.6682 17.6779 26.8087 17.509C27.1126 17.1544 27.0506 16.71 26.6511 16.3441C25.8858 15.635 24.6815 15.9953 23.2693 17.3459C22.3463 18.2294 21.8173 18.4713 20.2982 18.7077C19.6736 18.8033 19.2515 18.8314 18.3738 18.8314C16.9783 18.8314 16.7532 18.7752 15.3633 18.111C14.823 17.8465 14.2659 17.6214 14.1252 17.5988C13.9844 17.5762 13.5794 17.4638 13.2248 17.3456L12.5776 17.1318L13.2248 17.126C13.5794 17.1205 14.1252 17.0811 14.4345 17.0359C15.5545 16.8728 16.3984 16.9571 19.5835 17.5423C20.709 17.7506 20.9622 17.7619 21.2718 17.5985C21.5195 17.469 21.8738 17.0246 22.0033 16.6814C22.4703 15.4322 22.127 14.6724 20.8666 14.1715C20.0337 13.845 18.4468 13.5188 17.1075 13.4061C16.0777 13.3218 15.4024 13.2036 15.1211 13.0573C14.9916 12.9953 14.5585 12.7479 14.1588 12.5171C12.8925 11.7798 11.936 11.4084 10.9061 11.2395C10.2642 11.1387 8.84062 11.1387 8.12595 11.2401Z"
        fill="#B99503" />
</svg>
