<svg width="16" height="23" viewBox="0 0 16 23" fill="none" xmlns="http://www.w3.org/2000/svg">
<path fill-rule="evenodd" clip-rule="evenodd" d="M1.00214 0.221924C0.819742 0.221924 0.638742 0.229449 0.459838 0.246006C0.33506 0.256401 0.218484 0.316982 0.133285 0.415704C0.0480862 0.514426 0.00050481 0.644059 0 0.778832V21.5124C0 21.8074 0.22363 22.0467 0.50107 22.0467H2.00358C2.1358 22.0473 2.26283 21.9914 2.35678 21.8912C2.45073 21.791 2.50391 21.6548 2.50465 21.5124V17.6095L4.55715 18.548C4.81922 18.6684 5.13859 18.7948 5.47194 18.8415C5.81088 18.8889 6.19594 18.858 6.55375 18.6247C6.84648 18.4353 7.08878 18.1675 7.25714 17.8475C7.4255 17.5275 7.51421 17.166 7.51465 16.7982V15.1945C7.51391 15.0521 7.46073 14.9159 7.36678 14.8157C7.27283 14.7155 7.1458 14.6595 7.01358 14.6601L5.47194 14.1251C5.47194 13.5343 5.95903 13.5907 6.51321 13.5907H7.01358C7.07911 13.591 7.14405 13.5774 7.20469 13.5507C7.26534 13.524 7.3205 13.4846 7.36703 13.4349C7.41356 13.3853 7.45054 13.3262 7.47587 13.2611C7.5012 13.196 7.51438 13.1262 7.51465 13.0556V11.9862H8.08072C8.88159 11.9862 9.3589 11.0342 8.91513 10.323L7.51465 8.08035V7.17349C7.51465 3.33459 4.59908 0.221924 1.00144 0.221924H1.00214ZM6.01144 8.51007C6.01108 8.61589 5.99135 8.72058 5.95339 8.81818C5.91543 8.91578 5.85998 9.00436 5.79021 9.07887C5.72044 9.15337 5.63772 9.21234 5.54677 9.2524C5.45583 9.29246 5.35844 9.31282 5.26019 9.31232C5.16193 9.31282 5.06455 9.29246 4.9736 9.2524C4.88266 9.21234 4.79994 9.15337 4.73017 9.07887C4.6604 9.00436 4.60495 8.91578 4.56699 8.81818C4.52903 8.72058 4.5093 8.61589 4.50893 8.51007C4.5093 8.40426 4.52903 8.29957 4.56699 8.20197C4.60495 8.10437 4.6604 8.01579 4.73017 7.94128C4.79994 7.86678 4.88266 7.80781 4.9736 7.76775C5.06455 7.72769 5.16193 7.70733 5.26019 7.70783C5.35844 7.70733 5.45583 7.72769 5.54677 7.76775C5.63772 7.80781 5.72044 7.86678 5.79021 7.94128C5.85998 8.01579 5.91543 8.10437 5.95339 8.20197C5.99135 8.29957 6.01108 8.40426 6.01144 8.51007ZM10.8286 15.3367C11.0826 15.1765 11.2931 14.9474 11.4391 14.6722C11.5852 14.397 11.6616 14.0853 11.6609 13.7683C11.6609 13.0963 11.3254 12.5115 10.8293 12.2L11.5351 10.9003C11.9993 11.1935 12.3842 11.6126 12.6512 12.1158C12.9183 12.619 13.0582 13.1888 13.0572 13.7683C13.058 14.348 12.9177 14.9177 12.6504 15.4207C12.3831 15.9238 11.9981 16.3427 11.5337 16.6357L10.8279 15.3367H10.8286ZM14.6023 13.7683C14.6023 12.2128 13.9734 10.9191 13.1257 10.2591L13.9454 9.03989C15.2082 10.0235 16 11.8034 16 13.7683C16 15.7326 15.2082 17.5132 13.9454 18.4975L13.1257 17.2784C13.9734 16.6176 14.6023 15.3239 14.6023 13.7683Z" fill="#B99503"/>
</svg>
