<svg width="15" height="15" viewBox="0 0 15 15" fill="none" xmlns="http://www.w3.org/2000/svg">
<g clip-path="url(#clip0_220_670)">
<path d="M5.71856 6.94444H2.48299C2.40497 6.94444 2.33016 6.91518 2.275 6.86308C2.21983 6.81099 2.18884 6.74033 2.18884 6.66666C2.18884 6.59299 2.21983 6.52234 2.275 6.47024C2.33016 6.41815 2.40497 6.38889 2.48299 6.38889H5.71856C5.79657 6.38889 5.87139 6.41815 5.92655 6.47024C5.98171 6.52234 6.0127 6.59299 6.0127 6.66666C6.0127 6.74033 5.98171 6.81099 5.92655 6.86308C5.87139 6.91518 5.79657 6.94444 5.71856 6.94444Z" fill="#282828"/>
<path d="M2.48299 5H10.1307C10.2087 5 10.2835 5.02927 10.3387 5.08136C10.3939 5.13345 10.4248 5.20411 10.4248 5.27778C10.4248 5.35145 10.3939 5.4221 10.3387 5.4742C10.2835 5.52629 10.2087 5.55556 10.1307 5.55556H2.48299C2.40497 5.55556 2.33016 5.52629 2.275 5.4742C2.21983 5.4221 2.18884 5.35145 2.18884 5.27778C2.18884 5.20411 2.21983 5.13345 2.275 5.08136C2.33016 5.02927 2.40497 5 2.48299 5Z" fill="#282828"/>
<path d="M2.48299 3.61111H10.1307C10.2087 3.61111 10.2835 3.64038 10.3387 3.69247C10.3939 3.74457 10.4248 3.81522 10.4248 3.88889C10.4248 3.96256 10.3939 4.03322 10.3387 4.08531C10.2835 4.1374 10.2087 4.16667 10.1307 4.16667H2.48299C2.40497 4.16667 2.33016 4.1374 2.275 4.08531C2.21983 4.03322 2.18884 3.96256 2.18884 3.88889C2.18884 3.81522 2.21983 3.74457 2.275 3.69247C2.33016 3.64038 2.40497 3.61111 2.48299 3.61111Z" fill="#282828"/>
<path d="M2.48299 2.22223H10.1307C10.2087 2.22223 10.2835 2.25149 10.3387 2.30359C10.3939 2.35568 10.4248 2.42634 10.4248 2.50001C10.4248 2.57368 10.3939 2.64433 10.3387 2.69643C10.2835 2.74852 10.2087 2.77778 10.1307 2.77778H2.48299C2.40497 2.77778 2.33016 2.74852 2.275 2.69643C2.21983 2.64433 2.18884 2.57368 2.18884 2.50001C2.18884 2.42634 2.21983 2.35568 2.275 2.30359C2.33016 2.25149 2.40497 2.22223 2.48299 2.22223Z" fill="#282828"/>
<path d="M14.4958 6.66945L14.2958 6.86111L14.084 6.66111L14.2693 6.48611C14.515 6.25491 14.659 5.94454 14.6725 5.61726C14.6859 5.28998 14.5679 4.97 14.3419 4.7215C14.116 4.473 13.7989 4.31435 13.4543 4.2774C13.1097 4.24044 12.7631 4.32789 12.4839 4.52222V0.833333C12.4832 0.612522 12.39 0.400944 12.2247 0.244806C12.0593 0.0886686 11.8353 0.00065947 11.6015 0H1.01231C0.778492 0.00065947 0.554448 0.0886686 0.389112 0.244806C0.223775 0.400944 0.130581 0.612522 0.129883 0.833333V14.1667C0.130581 14.3875 0.223775 14.5991 0.389112 14.7552C0.554448 14.9113 0.778492 14.9993 1.01231 15H11.6015C11.8353 14.9993 12.0593 14.9113 12.2247 14.7552C12.39 14.5991 12.4832 14.3875 12.4839 14.1667V9.35833L14.9135 7.06389C14.9689 7.01158 15 6.94064 15 6.86667C15 6.79269 14.9689 6.72175 14.9135 6.66945C14.8581 6.61714 14.783 6.58775 14.7047 6.58775C14.6263 6.58775 14.5512 6.61714 14.4958 6.66945ZM11.8956 9.12778L11.5515 9.45278C11.5014 9.49944 11.4709 9.56157 11.4655 9.62778C11.4601 9.69397 11.4802 9.7598 11.522 9.81316C11.5638 9.86652 11.6247 9.90383 11.6933 9.91825C11.7619 9.93268 11.8338 9.92324 11.8956 9.89167V14.1667C11.8956 14.2403 11.8646 14.311 11.8095 14.3631C11.7543 14.4152 11.6795 14.4444 11.6015 14.4444H1.01231C0.9343 14.4444 0.859484 14.4152 0.804321 14.3631C0.749159 14.311 0.718169 14.2403 0.718169 14.1667V0.833333C0.718169 0.759662 0.749159 0.689008 0.804321 0.636915C0.859484 0.584821 0.9343 0.555556 1.01231 0.555556H11.6015C11.6795 0.555556 11.7543 0.584821 11.8095 0.636915C11.8646 0.689008 11.8956 0.759662 11.8956 0.833333V5.05556C10.6602 6.22222 6.38925 10.2556 6.38631 10.2611C6.30306 10.3397 6.24276 10.38 6.22159 10.4861C6.21453 10.5139 5.82155 12.2044 5.82155 12.2333L5.52447 12.5139C5.46908 12.5662 5.43796 12.6371 5.43796 12.7111C5.43796 12.7851 5.46908 12.856 5.52447 12.9083C5.57985 12.9606 5.65498 12.99 5.73331 12.99C5.81164 12.99 5.88676 12.9606 5.94215 12.9083L6.24218 12.625C6.28777 12.625 8.04615 12.2597 8.08939 12.25C8.22323 12.2203 8.23382 12.1886 8.33059 12.0972L11.8956 8.72778V9.12778ZM6.64515 10.9611L7.58641 11.85C6.61397 12.0536 7.17108 11.9381 6.38336 12.0972C6.54603 11.3786 6.48337 11.6503 6.64515 10.9611ZM8.1394 11.4944L7.0246 10.4417C7.11578 10.3511 11.2661 6.43306 11.3603 6.34444L12.4751 7.39722C12.3115 7.55083 8.27765 11.3569 8.1394 11.4944ZM12.4839 8.57222V8.17222C13.4722 7.23889 13.2137 7.4825 13.6693 7.05556L13.8811 7.25278L12.4839 8.57222ZM13.8517 6.09444C13.3587 6.56 13.574 6.35611 12.8927 7.00278H12.8898L11.7809 5.95278C11.9518 5.7875 11.7856 5.94528 12.7398 5.04444C12.8877 4.90752 13.0869 4.83127 13.2941 4.83226C13.5012 4.83325 13.6996 4.91139 13.8461 5.04972C13.9925 5.18805 14.0753 5.37538 14.0763 5.571C14.0774 5.76662 13.9966 5.95473 13.8517 6.09444Z" fill="#282828"/>
</g>
<defs>
<clipPath id="clip0_220_670">
<rect width="15" height="15" fill="white"/>
</clipPath>
</defs>
</svg>
