<svg width="40" height="40" viewBox="0 0 40 40" fill="none" xmlns="http://www.w3.org/2000/svg">
<g clip-path="url(#clip0_344_2873)">
<path fill-rule="evenodd" clip-rule="evenodd" d="M30 40H10C7.34787 39.9999 4.8044 38.9463 2.92906 37.0709C1.05372 35.1956 0.000116023 32.6521 0 30L0 10C0.000116023 7.34787 1.05372 4.8044 2.92906 2.92906C4.8044 1.05372 7.34787 0.000116023 10 0L30 0C32.6522 0 35.1957 1.05357 37.0711 2.92893C38.9464 4.8043 40 7.34784 40 10V30C40 32.6522 38.9464 35.1957 37.0711 37.0711C35.1957 38.9464 32.6522 40 30 40Z" fill="#0F9DFF"/>
<path fill-rule="evenodd" clip-rule="evenodd" d="M18.75 11.25H30C31.442 11.2499 32.829 10.696 33.8744 9.70276C34.9198 8.70948 35.5439 7.35266 35.6177 5.9125C35.6915 4.47235 35.2094 3.05885 34.271 1.96391C33.3325 0.868981 32.0095 0.176239 30.575 0.02875C30.3837 0.018125 30.1944 0 30 0H10C7.34787 0.000116023 4.8044 1.05372 2.92906 2.92906C1.05372 4.8044 0.000116023 7.34787 0 10L0 30C0.000116027 25.0272 1.97559 20.2582 5.49188 16.7419C9.00816 13.2256 13.7772 11.2501 18.75 11.25Z" fill="#00B7FF"/>
<path fill-rule="evenodd" clip-rule="evenodd" d="M30 20C28.0222 20 26.0888 20.5865 24.4443 21.6853C22.7998 22.7841 21.5181 24.3459 20.7612 26.1732C20.0043 28.0004 19.8063 30.0111 20.1922 31.9509C20.578 33.8907 21.5304 35.6725 22.9289 37.0711C24.3275 38.4696 26.1093 39.422 28.0491 39.8079C29.9889 40.1937 31.9996 39.9957 33.8268 39.2388C35.6541 38.4819 37.2159 37.2002 38.3147 35.5557C39.4135 33.9112 40 31.9778 40 30V10C40 12.6522 38.9464 15.1957 37.0711 17.0711C35.1957 18.9464 32.6522 20 30 20Z" fill="#1D83FF"/>
<path d="M15.3597 30.16C24.9459 30.16 30.2628 22.02 29.9397 14.91C30.6499 14.3968 31.292 13.7953 31.8503 13.12C31.8926 13.0677 31.9169 13.0032 31.9195 12.936C31.922 12.8688 31.9028 12.8026 31.8645 12.7473C31.8263 12.692 31.7712 12.6505 31.7075 12.6292C31.6437 12.6078 31.5748 12.6076 31.5109 12.6287C31.0895 12.7642 30.6599 12.8729 30.2247 12.9544C30.1903 12.9605 30.1548 12.9548 30.124 12.9383C30.0932 12.9218 30.0688 12.8954 30.0548 12.8634C30.0408 12.8313 30.038 12.7955 30.0468 12.7617C30.0556 12.7279 30.0756 12.698 30.1034 12.6769C30.6635 12.2338 31.1252 11.6788 31.4591 11.0475C31.4879 10.9899 31.498 10.9248 31.4878 10.8612C31.4776 10.7977 31.4477 10.7389 31.4023 10.6932C31.357 10.6476 31.2984 10.6173 31.2349 10.6068C31.1714 10.5962 31.1062 10.6059 31.0485 10.6344C30.2534 11.0132 29.4139 11.2906 28.5497 11.46C27.8461 10.7099 26.9332 10.1886 25.9295 9.9639C24.9259 9.73918 23.8779 9.82137 22.9215 10.1998C21.9652 10.5782 21.1447 11.2354 20.5666 12.0861C19.9885 12.9367 19.6795 13.9415 19.6797 14.97C19.6811 15.2969 19.7118 15.623 19.7716 15.9444C19.776 15.9677 19.775 15.9918 19.7687 16.0148C19.7624 16.0377 19.751 16.0589 19.7352 16.0767C19.7195 16.0946 19.6999 16.1086 19.6779 16.1177C19.656 16.1268 19.6322 16.1308 19.6084 16.1294C15.8976 15.892 12.4185 14.2426 9.88595 11.52C9.81277 11.4388 9.71945 11.3783 9.61542 11.3447C9.5114 11.3112 9.40034 11.3056 9.29349 11.3287C9.18664 11.3518 9.08777 11.4027 9.00689 11.4762C8.926 11.5497 8.86596 11.6433 8.83282 11.7475C8.48287 12.7213 8.44486 13.7799 8.72409 14.7763C9.00331 15.7727 9.58591 16.6574 10.3909 17.3075C10.4171 17.3284 10.4356 17.3572 10.4437 17.3897C10.4519 17.4221 10.4491 17.4563 10.4359 17.4871C10.4227 17.5178 10.3998 17.5434 10.3707 17.5598C10.3415 17.5762 10.3078 17.5827 10.2747 17.5781C9.98167 17.5382 9.6928 17.4721 9.41157 17.3806C9.30893 17.3463 9.19908 17.3395 9.09301 17.361C8.98694 17.3825 8.88838 17.4315 8.8072 17.5031C8.72393 17.5731 8.66152 17.6646 8.6268 17.7677C8.59207 17.8708 8.58638 17.9814 8.61032 18.0875C9.69657 22.27 12.6384 21.7368 12.6384 22.0537C12.6384 22.2681 12.0566 22.2681 11.2766 22.27C11.171 22.2705 11.0673 22.2981 10.9755 22.3502C10.8837 22.4023 10.8068 22.4771 10.7522 22.5674C10.6976 22.6578 10.6672 22.7607 10.6638 22.8662C10.6604 22.9717 10.6842 23.0763 10.7328 23.17C11.1433 23.8758 11.7151 24.4745 12.4013 24.917C13.0874 25.3595 13.8686 25.6334 14.6809 25.7162C14.7125 25.7186 14.7426 25.7307 14.7671 25.7508C14.7916 25.7708 14.8093 25.7979 14.8179 25.8284C14.8265 25.8589 14.8255 25.8913 14.8151 25.9212C14.8047 25.9511 14.7854 25.977 14.7597 25.9956C13.3408 27.0218 11.6823 27.6668 9.94282 27.8687C9.80816 27.8794 9.68093 27.9348 9.58139 28.0261C9.48184 28.1174 9.4157 28.2394 9.39349 28.3726C9.37129 28.5059 9.39429 28.6427 9.45884 28.7614C9.52338 28.88 9.62577 28.9737 9.7497 29.0275C11.5246 29.778 13.4326 30.1632 15.3597 30.16Z" fill="white"/>
</g>
<defs>
<clipPath id="clip0_344_2873">
<rect width="40" height="40" fill="white"/>
</clipPath>
</defs>
</svg>
