<svg width="14" height="14" viewBox="0 0 14 14" fill="none" xmlns="http://www.w3.org/2000/svg">
<path d="M6.5625 5.25V7.875H3.9375V5.25H6.5625ZM6.5625 11.375V8.75H3.9375V11.375H6.5625ZM10.0625 5.25V7.875H7.4375V5.25H10.0625ZM10.0625 11.375V8.75H7.4375V11.375H10.0625ZM4.375 2.625V1.3125C4.375 0.964403 4.51328 0.630564 4.75942 0.384422C5.00556 0.138281 5.3394 0 5.6875 0H8.3125C8.6606 0 8.99444 0.138281 9.24058 0.384422C9.48672 0.630564 9.625 0.964403 9.625 1.3125V2.625H13.5625C13.6785 2.625 13.7898 2.67109 13.8719 2.75314C13.9539 2.83519 14 2.94647 14 3.0625V11.8125C14 12.3927 13.7695 12.9491 13.3593 13.3593C12.9491 13.7695 12.3927 14 11.8125 14H2.1875C1.60734 14 1.05094 13.7695 0.640704 13.3593C0.230468 12.9491 0 12.3927 0 11.8125V3.0625C0 2.94647 0.0460937 2.83519 0.128141 2.75314C0.210188 2.67109 0.321468 2.625 0.4375 2.625H4.375ZM5.25 1.3125V2.625H8.75V1.3125C8.75 1.19647 8.70391 1.08519 8.62186 1.00314C8.53981 0.921094 8.42853 0.875 8.3125 0.875H5.6875C5.57147 0.875 5.46019 0.921094 5.37814 1.00314C5.29609 1.08519 5.25 1.19647 5.25 1.3125ZM0.875 11.8125C0.875 12.1606 1.01328 12.4944 1.25942 12.7406C1.50556 12.9867 1.8394 13.125 2.1875 13.125H11.8125C12.1606 13.125 12.4944 12.9867 12.7406 12.7406C12.9867 12.4944 13.125 12.1606 13.125 11.8125V3.5H0.875V11.8125Z" fill="#282828"/>
</svg>
