<svg width="62" height="50" viewBox="0 0 62 50" fill="none" xmlns="http://www.w3.org/2000/svg">
<path d="M38.3498 33.5431V38.0267H49.7261C57.3427 38.0267 62 33.857 62 28.1629C62 23.4103 59.0649 19.5769 54.2379 17.8059C54.2621 7.67315 46.3545 0.36499 36.1909 0.36499C29.7387 0.36499 24.8873 3.43621 21.8552 7.49381C16.0579 6.17116 9.21753 10.2288 8.97496 16.5505C3.42019 17.4248 0 21.6842 0 27.1093C0 33.1396 4.97261 38.0267 13.0501 38.0267H23.5532V33.5431H13.0501C7.76213 33.5431 4.89984 30.6288 4.89984 27.0196C4.89984 22.8275 7.88341 19.8908 12.8318 19.8908C13.1956 19.8908 13.3412 19.7114 13.3169 19.3976C13.1714 12.7171 18.338 10.565 23.5532 11.9773C23.8685 12.0446 24.0626 11.9998 24.2081 11.7532C26.5368 7.83007 30.151 4.82611 36.1667 4.82611C43.7833 4.82611 49.2167 10.4081 49.5806 16.9316C49.6534 18.1198 49.5563 19.4424 49.4593 20.5185C49.4108 20.8323 49.5563 21.0117 49.8717 21.0565C54.3106 21.8411 57.1002 24.2174 57.1002 27.9611C57.1002 31.2341 54.626 33.5431 49.6291 33.5431H38.3498ZM30.9515 49.2355C32.2128 49.2355 33.2316 48.294 33.2316 47.1731V26.5264L32.989 22.5361L34.5415 24.195L37.9131 27.3334C38.3255 27.737 38.8834 27.9611 39.4413 27.9611C40.5571 27.9611 41.4789 27.1989 41.4789 26.1453C41.4789 25.6073 41.2606 25.1813 40.8239 24.8227L32.6737 17.7387C32.0673 17.2231 31.5579 17.0213 30.9515 17.0213C30.3693 17.0213 29.8357 17.2231 29.2293 17.7387L21.079 24.8227C20.6424 25.1813 20.4484 25.6073 20.4484 26.1453C20.4484 27.1989 21.3459 27.9611 22.4617 27.9611C23.0196 27.9611 23.5775 27.737 23.9898 27.3334L27.3615 24.195L28.9382 22.5361L28.6714 26.5264V47.1731C28.6714 48.294 29.7144 49.2355 30.9515 49.2355Z" fill="#747474"/>
</svg>
