<svg width="11" height="8" viewBox="0 0 11 8" fill="none" xmlns="http://www.w3.org/2000/svg">
<path d="M5.09132 5.09128C5.84115 5.09128 6.449 4.48342 6.449 3.7336C6.449 2.98377 5.84115 2.37592 5.09132 2.37592C4.3415 2.37592 3.73364 2.98377 3.73364 3.7336C3.73364 4.48342 4.3415 5.09128 5.09132 5.09128Z" fill="#747474"/>
<path d="M10.1621 3.61822C9.76288 2.58558 9.06983 1.69256 8.16861 1.04952C7.26739 0.406474 6.19749 0.0416037 5.09116 0C3.98482 0.0416037 2.91493 0.406474 2.0137 1.04952C1.11248 1.69256 0.419433 2.58558 0.0202208 3.61822C-0.00674027 3.69279 -0.00674027 3.77445 0.0202208 3.84902C0.419433 4.88166 1.11248 5.77468 2.0137 6.41773C2.91493 7.06077 3.98482 7.42564 5.09116 7.46724C6.19749 7.42564 7.26739 7.06077 8.16861 6.41773C9.06983 5.77468 9.76288 4.88166 10.1621 3.84902C10.1891 3.77445 10.1891 3.69279 10.1621 3.61822ZM5.09116 5.93985C4.65481 5.93985 4.22825 5.81046 3.86544 5.56804C3.50263 5.32561 3.21985 4.98104 3.05287 4.57791C2.88588 4.17477 2.84219 3.73117 2.92732 3.30321C3.01245 2.87524 3.22257 2.48213 3.53112 2.17358C3.83966 1.86503 4.23278 1.65491 4.66074 1.56978C5.08871 1.48465 5.53231 1.52835 5.93544 1.69533C6.33858 1.86231 6.68315 2.14509 6.92557 2.50791C7.16799 2.87072 7.29739 3.29727 7.29739 3.73362C7.29649 4.31847 7.06376 4.87912 6.65021 5.29267C6.23665 5.70622 5.67601 5.93895 5.09116 5.93985Z" fill="#747474"/>
</svg>
