<svg width="35" height="33" viewBox="0 0 35 33" fill="none" xmlns="http://www.w3.org/2000/svg">
<path d="M9.11428 15.694H27.4357C27.6857 15.694 27.9071 15.5522 28.0107 15.3224C28.1143 15.0925 28.0857 14.8205 27.9321 14.606L23.925 9.02815C23.7714 8.81361 23.5107 8.6757 23.2571 8.6757H13.0643C12.8107 8.6757 12.5393 8.82128 12.3893 9.04347L8.60713 14.6175C8.4607 14.832 8.4357 15.104 8.54285 15.3262C8.64642 15.5522 8.86785 15.694 9.11428 15.694ZM26.4393 14.4911H10.0714L13.2036 9.87478H23.1214L26.4393 14.4911Z" fill="black"/>
<path d="M24.7178 9.52998H33.4285C33.6678 9.52998 33.8749 9.40356 33.9892 9.19286C34.1035 8.98216 34.0999 8.72166 33.9821 8.5033L29.7035 0.496657C29.5857 0.274463 29.3785 0.140381 29.1464 0.140381C28.9214 0.140381 28.7142 0.270632 28.5964 0.485164L24.1642 8.49563C24.0428 8.714 24.0357 8.9745 24.1499 9.18903C24.2678 9.40356 24.4785 9.52998 24.7178 9.52998ZM32.6035 8.33091H25.5571L29.1428 1.85281L32.6035 8.33091Z" fill="black"/>
<path d="M11.7499 31.1403H26.2428V15.33H25.1249V29.945H11.7499V31.1403Z" fill="black"/>
<path d="M11.6178 15.0925H10.4999V30.5426H11.6178V15.0925Z" fill="black"/>
<path d="M11.1608 25.4743H3.30363V26.6734H11.1608V25.4743Z" fill="black"/>
<path d="M9.65356 26.0605H8.53571V30.263H9.65356V26.0605Z" fill="black"/>
<path d="M7.77502 26.3401H6.65717V30.5426H7.77502V26.3401Z" fill="black"/>
<path d="M5.83215 26.3401H4.7143V30.5426H5.83215V26.3401Z" fill="black"/>
<path d="M3.86426 20.1187H2.7464V30.6001H3.86426V20.1187Z" fill="black"/>
<path d="M2.12143 32.6037H34.3C34.6857 32.6037 35 32.2666 35 31.8528V30.6882C35 30.2745 34.6857 29.9374 34.3 29.9374H2.12143C1.73572 29.9374 1.42143 30.2745 1.42143 30.6882V31.8528C1.42501 32.2666 1.73929 32.6037 2.12143 32.6037ZM33.8821 31.4046H2.54286V31.1403H33.8821V31.4046Z" fill="black"/>
<path d="M20.2071 19.5019H22.8321C23.1786 19.5019 23.4607 19.1993 23.4607 18.8277V16.9237C23.4607 16.5521 23.1786 16.2495 22.8321 16.2495H20.2071C19.8607 16.2495 19.5786 16.5521 19.5786 16.9237V18.8277C19.575 19.1993 19.8571 19.5019 20.2071 19.5019ZM22.3428 18.3028H20.6964V17.4485H22.3428V18.3028Z" fill="black"/>
<path d="M27.7607 25.6774H30.3857C30.7321 25.6774 31.0143 25.3747 31.0143 25.0031V23.103C31.0143 22.7314 30.7321 22.4287 30.3857 22.4287H27.7607C27.4143 22.4287 27.1321 22.7314 27.1321 23.103V25.0031C27.1321 25.3747 27.4143 25.6774 27.7607 25.6774ZM29.8964 24.4783H28.25V23.624H29.8964V24.4783Z" fill="black"/>
<path d="M27.7607 13.698H30.3857C30.7321 13.698 31.0143 13.3954 31.0143 13.0238V11.1237C31.0143 10.7521 30.7321 10.4494 30.3857 10.4494H27.7607C27.4143 10.4494 27.1321 10.7521 27.1321 11.1237V13.0238C27.1321 13.3954 27.4143 13.698 27.7607 13.698ZM29.8964 12.499H28.25V11.6447H29.8964V12.499Z" fill="black"/>
<path d="M14.0357 19.5019H16.6607C17.0072 19.5019 17.2893 19.1993 17.2893 18.8277V16.9237C17.2893 16.5521 17.0072 16.2495 16.6607 16.2495H14.0357C13.6893 16.2495 13.4072 16.5521 13.4072 16.9237V18.8277C13.4072 19.1993 13.6893 19.5019 14.0357 19.5019ZM16.1714 18.3028H14.525V17.4485H16.1714V18.3028Z" fill="black"/>
<path d="M15.6928 30.1097H16.8107L16.8035 23.5742C16.9142 23.4209 17.2928 22.9995 18.1964 22.9459C19.0964 22.8923 19.55 23.4018 19.6857 23.5895L19.6928 30.1136H20.8107L20.8035 23.4899C20.8035 23.3443 20.7642 23.1796 20.6928 23.0532C20.6607 22.9957 19.9178 21.6434 18.1321 21.7507C16.725 21.8349 15.9892 22.6241 15.775 23.0762C15.7178 23.1949 15.6821 23.3558 15.6821 23.4899L15.6928 30.1097Z" fill="black"/>
<path d="M-4.15662e-05 21.1071H25.6857V19.908H2.47139L4.47139 17.4677H10.9357V16.2686H3.96424L-4.15662e-05 21.1071Z" fill="black"/>
<path d="M32.7535 8.93238H31.6357V16.8701H32.7535V8.93238Z" fill="black"/>
<path d="M26.2428 9.13924H25.1249V12.4645H26.2428V9.13924Z" fill="black"/>
<path d="M25.125 21.4748H34.6357V16.2686H25.125V21.4748ZM33.5179 20.2719H26.2465V17.4639H33.5179V20.2719Z" fill="#282828"/>
<path d="M32.7535 20.8734H31.6357V30.5426H32.7535V20.8734Z" fill="black"/>
</svg>
