<svg width="17" height="17" viewBox="0 0 17 17" fill="none" xmlns="http://www.w3.org/2000/svg">
<path d="M4.61208 5.17143L9.91948 0.290728C10.081 0.139428 10.3462 0.139428 10.5077 0.290728L14.6217 4.12933C14.6999 4.20073 14.7441 4.30103 14.7441 4.40303C14.7441 4.50673 14.6999 4.60533 14.6217 4.67843L14.0522 5.17143C13.5252 5.19693 13.4283 5.21563 12.9421 5.17143L13.7377 4.40303L10.2136 1.11523L5.72388 5.17143C5.10848 5.17823 5.11188 5.20203 4.61208 5.17143ZM2.94608 5.17143L6.03328 0.363828C6.14888 0.180228 6.40218 0.115628 6.60108 0.222728L9.05418 1.28353C8.57988 1.73403 8.79068 1.23763 7.94408 1.83943L6.54498 1.08973L4.05788 5.17143C3.31498 5.19353 3.39148 5.15103 2.94608 5.17143ZM14.7475 16.8283H2.25248C1.10328 16.8283 0.169983 15.9562 0.169983 14.8852V6.77963C0.169983 5.70863 1.24268 5.17143 2.39188 5.17143H14.6081C15.7573 5.17143 16.83 5.70863 16.83 6.77963V14.8852C16.83 15.9562 15.895 16.8283 14.7475 16.8283ZM2.48368 6.27473C1.82068 6.27473 1.28008 6.48043 1.28008 7.07713V14.9243C1.28008 15.521 1.82068 15.7267 2.48368 15.7267H14.5146C15.1776 15.7267 15.7182 15.521 15.7182 14.9243V7.07713C15.7182 6.48043 15.1776 6.27473 14.5146 6.27473H2.48368ZM12.1125 12.3862C11.0415 12.3862 10.1694 11.5124 10.1694 10.4397C10.1694 9.36703 11.0415 8.49323 12.1125 8.49323C13.1835 8.49323 14.0556 9.36533 14.0556 10.4397C14.0556 11.5141 13.1852 12.3862 12.1125 12.3862ZM12.1125 9.47583C11.5753 9.47583 11.1384 9.91273 11.1384 10.4482C11.1384 10.9837 11.5753 11.4206 12.1125 11.4206C12.6497 11.4206 13.0866 10.9854 13.0866 10.4482C13.0866 9.91103 12.6497 9.47583 12.1125 9.47583Z" fill="black"/>
</svg>
